<?xml version="1.0" standalone="no"?>
<!DOCTYPE svg PUBLIC "-//W3C//DTD SVG 20010904//EN"
 "http://www.w3.org/TR/2001/REC-SVG-20010904/DTD/svg10.dtd">
<svg version="1.0" xmlns="http://www.w3.org/2000/svg"
 width="1920.000000pt" height="1080.000000pt" viewBox="0 0 1920.000000 1080.000000"
 preserveAspectRatio="xMidYMid meet">
<metadata>
Created by potrace 1.14, written by Peter Selinger 2001-2017
</metadata>
<g transform="translate(0.000000,1080.000000) scale(0.100000,-0.100000)"
fill="#000000" stroke="none">
<path d="M9674 10006 c-47 -46 -54 -73 -29 -116 19 -33 19 -64 0 -80 -11 -9
-15 -32 -15 -82 0 -60 3 -72 25 -94 22 -22 32 -25 82 -22 53 3 59 6 80 37 27
41 31 107 7 152 -13 26 -14 38 -3 78 17 68 6 113 -36 145 -18 14 -41 26 -51
26 -9 0 -36 -20 -60 -44z"/>
<path d="M9931 10031 c-9 -6 -18 -37 -22 -78 -5 -37 -13 -106 -19 -153 -14
-118 -13 -190 3 -190 36 1 57 43 57 117 0 32 4 64 9 71 11 19 49 -55 62 -121
11 -61 20 -72 52 -63 29 7 35 19 47 104 16 115 54 104 65 -19 8 -84 20 -103
54 -82 24 15 25 48 2 147 -11 50 -23 126 -27 169 -6 76 -20 107 -48 107 -29 0
-45 -44 -75 -199 -7 -39 -25 -51 -39 -24 -5 10 -17 54 -27 98 -23 102 -54 141
-94 116z"/>
<path d="M9473 10023 c-6 -5 -14 -20 -18 -35 -6 -23 -3 -29 19 -39 l26 -12 0
-151 c0 -83 4 -157 9 -164 4 -8 19 -12 32 -10 l24 3 0 205 0 205 -40 3 c-22 1
-45 -1 -52 -5z"/>
<path d="M14918 9914 c-47 -25 -61 -65 -53 -150 6 -61 4 -78 -10 -100 -24 -37
-21 -85 9 -133 26 -41 27 -41 86 -41 67 0 78 9 100 86 10 33 10 49 -1 80 -8
24 -12 72 -10 122 3 82 3 82 -32 117 -39 39 -49 41 -89 19z"/>
<path d="M15149 9897 c-21 -29 -51 -230 -53 -352 -1 -41 2 -50 18 -53 28 -6
34 6 47 88 13 81 26 110 40 88 5 -7 9 -28 9 -46 0 -46 45 -132 70 -132 25 0
32 12 56 105 22 87 47 109 52 45 6 -82 23 -139 43 -145 10 -4 24 -3 30 0 13 9
3 170 -16 240 -7 28 -17 75 -20 106 -9 69 -16 82 -46 77 -19 -2 -26 -14 -40
-63 -10 -33 -20 -77 -24 -97 -6 -39 -39 -88 -51 -76 -4 4 -11 27 -15 50 -7 41
-30 115 -50 166 -11 28 -29 28 -50 -1z"/>
<path d="M3622 9897 c-34 -18 -56 -59 -48 -90 6 -24 9 -25 30 -16 13 6 29 23
35 37 16 34 36 14 36 -36 -1 -26 -11 -51 -35 -85 -91 -127 -90 -137 15 -137
52 0 76 4 85 15 15 18 -1 42 -37 56 -24 9 -31 33 -13 44 21 13 50 86 50 125 0
33 -6 48 -29 71 -32 32 -53 35 -89 16z"/>
<path d="M3818 9898 c-10 -9 -19 -46 -27 -118 -7 -58 -16 -122 -21 -143 -6
-29 -4 -41 7 -53 23 -23 41 0 45 54 2 39 7 48 24 50 23 3 34 -19 34 -69 0 -31
21 -52 47 -47 12 2 20 17 25 47 4 24 18 55 30 69 l23 24 10 -68 c10 -68 19
-81 43 -65 10 6 11 21 3 72 -6 35 -13 99 -17 141 -4 56 -11 84 -25 100 l-19
23 -19 -23 c-11 -13 -23 -44 -26 -70 -11 -84 -13 -91 -34 -85 -23 6 -41 43
-41 86 0 35 -19 78 -35 84 -6 2 -18 -2 -27 -9z"/>
<path d="M3433 9883 c-4 -9 2 -30 13 -47 15 -24 20 -57 24 -145 5 -117 16
-145 40 -101 15 27 20 280 7 298 -14 18 -76 15 -84 -5z"/>
<path d="M14677 9893 c-4 -3 -7 -21 -7 -40 0 -27 5 -35 25 -43 l25 -10 0 -144
c0 -117 3 -146 16 -156 12 -11 18 -10 32 4 15 14 17 41 17 194 1 97 -3 183 -8
190 -10 12 -89 17 -100 5z"/>
<path d="M7269 9808 c-12 -5 -19 -14 -17 -20 4 -10 221 -14 1036 -16 1027 -2
1032 -2 1032 18 0 12 -7 20 -17 20 -10 0 -467 1 -1016 3 -549 1 -1007 -1
-1018 -5z"/>
<path d="M10460 9810 c-84 -4 -105 -8 -105 -20 0 -13 122 -15 1029 -18 680 -1
1033 1 1040 8 7 7 7 13 0 20 -11 11 -1765 19 -1964 10z"/>
<path d="M13488 9692 c-1000 -2 -1008 -2 -1008 -22 0 -20 7 -20 1029 -20 731
0 1032 3 1037 11 8 13 -5 26 -31 30 -11 2 -473 3 -1027 1z"/>
<path d="M15572 9684 c-45 -33 -11 -34 1028 -34 730 0 1031 3 1036 11 3 6 2
15 -3 20 -14 14 -2042 17 -2061 3z"/>
<path d="M6266 9631 c-20 -63 -20 -80 2 -109 l18 -24 45 23 c24 13 47 27 51
33 4 6 15 0 27 -15 18 -22 21 -23 37 -7 13 13 21 14 35 5 27 -17 31 -5 22 69
-6 54 -12 69 -26 72 -12 3 -19 -5 -23 -27 -9 -42 -39 -42 -48 0 -8 39 -27 33
-39 -12 -5 -19 -13 -38 -17 -43 -14 -15 -39 12 -42 46 -5 49 -24 44 -42 -11z"/>
<path d="M2016 9394 c-3 -9 -6 -1579 -6 -3489 0 -2768 3 -3475 13 -3482 6 -4
3531 -7 7831 -6 6391 2 7821 4 7828 15 13 20 9 2549 -4 2565 -7 9 -40 13 -104
13 -87 0 -94 -2 -94 -20 0 -17 8 -19 73 -22 69 -3 72 -4 72 -28 l0 -25 -710
-5 c-390 -3 -716 -9 -722 -13 -9 -6 -13 -41 -13 -118 0 -90 3 -111 15 -116 25
-9 30 5 27 79 -1 39 0 79 3 90 6 17 31 18 708 16 l702 -3 3 -1179 c1 -863 -1
-1182 -9 -1192 -16 -19 -4268 -21 -4287 -2 -17 17 -17 869 0 886 7 7 24 12 39
12 31 0 47 16 31 32 -14 14 -191 13 -205 -1 -14 -14 1 -31 28 -31 17 0 26 -7
30 -22 3 -13 4 -216 3 -453 l-3 -430 -1684 -2 c-1333 -2 -1687 0 -1693 10 -4
6 -8 213 -8 458 0 346 -3 449 -13 463 -18 24 -110 19 -115 -6 -3 -14 3 -18 27
-18 19 0 34 -7 40 -18 6 -11 9 -181 8 -439 -2 -338 -5 -423 -16 -436 -12 -16
-144 -17 -1696 -14 -926 1 -1687 6 -1692 10 -4 5 -10 216 -13 470 l-5 462 -55
6 c-57 6 -94 -4 -87 -24 2 -7 22 -13 44 -15 23 -2 47 -9 53 -17 8 -10 11 -132
11 -442 -1 -384 -3 -429 -18 -440 -24 -18 -4261 -19 -4286 -1 -16 12 -17 89
-15 1193 l3 1180 650 0 650 0 5 -90 c4 -74 8 -90 22 -93 25 -5 29 24 26 193
-3 142 -4 150 -23 150 -14 0 -21 -8 -23 -25 -1 -14 -5 -35 -7 -47 l-5 -23
-633 0 c-491 0 -637 3 -650 13 -16 11 -17 150 -17 2216 0 1747 3 2207 13 2213
6 4 777 7 1712 5 l1700 -2 3 -704 c1 -512 -1 -708 -9 -717 -9 -11 -44 -14
-139 -14 -108 0 -129 -3 -134 -16 -3 -9 -2 -23 3 -32 7 -13 32 -16 154 -16
133 -1 146 1 157 18 9 15 12 196 11 742 -1 705 0 724 18 734 27 14 56 13 70
-4 9 -11 12 -229 11 -877 0 -794 1 -863 16 -880 21 -23 28 -23 48 -4 14 14 15
116 15 887 0 940 -3 888 53 888 34 0 49 -26 46 -77 -1 -21 -1 -66 0 -101 2
-60 3 -63 25 -60 21 3 22 7 25 125 2 112 1 124 -18 143 -20 20 -24 20 -1914
20 -1718 0 -1894 -1 -1900 -16z"/>
<path d="M9505 9400 l-3240 -5 -3 -131 c-2 -108 0 -133 12 -137 26 -10 35 18
38 124 l3 104 440 3 c394 2 441 1 452 -14 8 -12 12 -139 12 -472 1 -521 -6
-482 92 -482 64 0 91 18 72 48 -8 12 -22 16 -50 14 -24 -2 -44 2 -51 10 -17
21 -18 843 -2 863 11 13 326 15 2569 15 1975 0 2560 -3 2569 -12 17 -17 17
-2339 0 -2356 -17 -17 -1649 -17 -1666 0 -7 7 -12 43 -12 89 0 80 -12 107 -35
76 -15 -20 -8 -205 7 -224 8 -10 498 -13 2389 -13 2341 0 2378 0 2389 19 14
27 13 218 -1 227 -19 12 -29 -18 -29 -91 0 -42 -5 -76 -12 -83 -9 -9 -352 -12
-1484 -12 -1333 0 -1472 1 -1478 16 -8 20 -8 2328 0 2348 6 15 242 16 2574 16
2332 0 2568 -1 2574 -16 9 -24 7 -2337 -3 -2352 -6 -11 -106 -13 -511 -12
-317 0 -509 4 -521 11 -16 8 -19 22 -19 90 0 64 -3 81 -16 86 -26 10 -34 -16
-34 -114 0 -146 -58 -133 570 -133 464 0 531 -2 536 -15 12 -31 -15 -45 -87
-45 l-69 0 0 -30 0 -31 85 2 c46 1 92 7 100 13 14 10 16 151 16 1305 0 1056
-2 1296 -13 1302 -13 9 -2145 8 -8163 -1z"/>
<path d="M1068 9369 c-17 -9 -18 -86 -18 -1393 0 -1253 1 -1384 16 -1390 24
-9 63 -7 85 4 19 11 19 37 19 1390 0 1353 0 1379 -19 1390 -25 13 -61 12 -83
-1z"/>
<path d="M17869 9333 c-2 -10 -2 -223 1 -473 4 -409 7 -455 21 -458 9 -2 18 5
20 15 2 10 2 223 -1 473 -4 409 -7 455 -21 458 -9 2 -18 -5 -20 -15z"/>
<path d="M9047 8352 c-30 -21 -37 -30 -31 -47 4 -11 6 -36 4 -55 -1 -19 -3
-89 -4 -154 l-1 -119 40 -23 c22 -13 42 -23 45 -23 19 -1 35 25 39 66 5 39 10
48 26 48 15 0 21 -8 25 -35 4 -31 8 -35 35 -35 29 0 29 1 32 60 5 128 11 196
15 201 3 2 11 -2 18 -11 18 -21 20 -203 3 -217 -17 -14 -16 -53 1 -67 19 -16
54 1 65 32 5 12 9 81 10 152 1 72 6 145 12 162 9 28 7 37 -11 63 -25 35 -39
37 -68 11 -12 -10 -43 -21 -69 -25 -38 -5 -53 -2 -89 19 -23 14 -46 25 -51 24
-4 -1 -25 -13 -46 -27z"/>
<path d="M9472 8369 c-47 -18 -51 -31 -46 -125 6 -103 6 -88 1 -184 -5 -84 2
-105 37 -114 13 -3 31 -9 39 -12 11 -4 21 5 32 25 19 38 67 59 118 53 30 -3
38 -9 43 -31 10 -47 13 -51 38 -51 17 0 27 7 32 23 8 24 7 381 -2 410 -3 10
-15 17 -30 17 -25 0 -28 -4 -39 -53 -6 -28 -6 -28 -23 -8 -11 14 -34 23 -67
27 -27 4 -60 13 -72 20 -25 16 -29 16 -61 3z"/>
<path d="M9865 8355 c-14 -13 -25 -35 -25 -48 0 -13 -5 -38 -11 -54 -8 -24 -7
-39 5 -68 10 -24 16 -68 16 -122 0 -76 2 -86 25 -108 23 -24 30 -25 144 -25
118 0 121 1 137 25 16 25 16 27 -6 50 -13 14 -19 29 -14 36 7 13 24 130 26
184 2 41 -17 122 -32 140 -10 12 -37 15 -127 15 -108 0 -115 -1 -138 -25z
m207 -213 c19 -19 4 -47 -27 -52 -27 -5 -30 -9 -28 -37 3 -29 0 -33 -32 -39
-47 -8 -65 8 -65 59 0 62 28 87 93 82 27 -2 54 -8 59 -13z"/>
<path d="M10350 8365 c-14 -8 -41 -14 -61 -15 -70 0 -73 -8 -77 -196 -4 -171
4 -224 31 -224 8 0 22 9 32 20 23 25 115 29 135 5 7 -8 23 -15 37 -15 13 0 26
7 29 15 4 9 19 15 39 15 18 0 40 3 49 6 18 7 22 59 6 69 -6 4 -9 23 -8 43 3
35 1 37 -29 40 -63 6 -72 62 -10 62 42 0 66 24 50 48 -8 12 -22 16 -49 14 -52
-3 -84 5 -84 23 0 19 34 28 79 20 28 -5 41 -2 51 10 23 28 0 51 -49 47 -24 -2
-55 3 -73 12 -38 20 -65 20 -98 1z"/>
<path d="M13642 8347 c-30 -31 -31 -36 -21 -65 6 -18 8 -45 5 -60 -11 -43 -13
-215 -4 -240 4 -13 24 -30 44 -38 44 -18 54 -10 54 49 0 43 21 58 48 35 9 -9
29 -18 44 -22 18 -4 30 -15 34 -31 13 -51 60 -56 66 -7 2 19 12 31 36 41 42
19 40 50 -5 71 -38 17 -39 41 -3 50 18 4 26 14 28 32 3 21 -3 30 -28 43 -38
19 -35 36 8 47 41 11 45 20 31 68 -16 54 -39 66 -73 39 -26 -20 -28 -20 -46
-4 -20 18 -70 14 -70 -5 0 -18 -50 -10 -67 10 -24 28 -44 25 -81 -13z"/>
<path d="M14064 8372 c-7 -4 -21 -25 -32 -47 l-21 -40 19 -59 c25 -74 25 -80
-1 -97 -40 -27 -42 -154 -2 -185 18 -15 323 -16 341 -2 8 7 12 38 12 88 0 63
-4 82 -21 104 -20 25 -20 28 -5 51 20 31 21 116 1 154 -8 16 -25 31 -37 35
-32 8 -241 7 -254 -2z"/>
<path d="M14444 8366 c-18 -13 -19 -30 -22 -217 -2 -111 1 -206 6 -211 5 -5
20 0 35 12 20 16 27 31 27 55 0 54 17 49 23 -7 4 -28 12 -55 19 -60 24 -14 68
-8 85 12 22 25 24 25 54 0 13 -12 34 -20 49 -18 21 3 26 10 33 48 16 90 19
178 8 212 -9 28 -9 40 3 62 14 28 10 60 -13 105 -11 20 -19 21 -149 21 -104 0
-143 -4 -158 -14z"/>
<path d="M14834 8366 c-3 -8 -4 -25 -2 -38 3 -23 4 -23 165 -26 155 -2 163 -2
173 18 6 11 8 30 5 40 -6 19 -16 20 -171 20 -133 0 -166 -3 -170 -14z"/>
<path d="M15473 8368 c-4 -7 -13 -26 -19 -43 -7 -16 -18 -44 -24 -61 -17 -41
-6 -82 25 -94 37 -14 282 -9 303 6 25 19 18 106 -13 161 l-26 43 -119 0 c-84
0 -121 -4 -127 -12z"/>
<path d="M16041 8371 c-7 -5 -31 -6 -52 -4 -38 5 -39 5 -39 -24 0 -17 7 -36
15 -43 8 -7 15 -21 15 -32 0 -10 9 -45 19 -76 20 -60 17 -113 -11 -166 -20
-38 -39 -44 -62 -20 -12 12 -16 37 -16 107 0 100 -13 140 -46 145 -11 2 -31
-6 -44 -16 l-23 -19 24 -32 c22 -29 24 -43 24 -133 0 -119 7 -128 98 -128 70
0 90 9 107 50 l13 31 34 -41 c39 -45 73 -53 73 -18 0 13 -12 53 -26 91 -29 76
-28 100 5 212 32 110 25 136 -29 103 -15 -10 -22 -9 -38 5 -21 20 -22 20 -41
8z"/>
<path d="M16566 8365 c-11 -9 -41 -15 -68 -15 -35 0 -54 -6 -68 -20 -25 -25
-25 -34 1 -89 13 -29 18 -55 13 -73 -3 -17 -1 -35 6 -43 9 -11 8 -19 -4 -36
-9 -13 -13 -32 -10 -46 3 -12 1 -37 -5 -54 -19 -56 -9 -60 173 -57 l161 3 1
65 c0 36 -2 94 -6 130 -5 45 -3 74 7 97 32 77 6 123 -72 123 -22 0 -49 7 -59
15 -25 19 -46 19 -70 0z"/>
<path d="M15293 8338 c-23 -29 -45 -122 -46 -197 -3 -129 55 -224 105 -174 19
19 19 20 -6 64 -31 53 -36 155 -10 218 21 52 16 95 -12 99 -11 2 -25 -3 -31
-10z"/>
<path d="M16250 8335 c-13 -16 -7 -45 21 -91 28 -47 25 -138 -6 -189 -29 -46
-32 -80 -9 -89 37 -14 50 -5 77 53 38 82 38 175 0 266 -21 52 -31 65 -49 65
-12 0 -27 -7 -34 -15z"/>
<path d="M17881 8271 c-17 -31 -13 -45 19 -63 26 -15 30 -22 24 -45 -3 -15
-15 -43 -25 -61 -25 -44 -25 -92 -1 -92 21 0 47 51 57 111 3 21 12 42 20 49
18 15 20 74 3 87 -7 6 -22 13 -33 15 -11 3 -28 9 -37 13 -11 4 -20 0 -27 -14z"/>
<path d="M18327 8262 c-26 -27 -36 -75 -19 -86 5 -3 16 4 26 15 14 17 20 18
32 8 19 -15 11 -40 -33 -103 -46 -67 -42 -90 17 -94 30 -2 52 2 65 13 14 12
16 18 7 22 -35 14 -41 32 -25 71 8 20 21 44 29 53 8 8 14 20 14 26 0 13 -68
103 -79 103 -4 0 -19 -13 -34 -28z"/>
<path d="M18502 8260 c-32 -20 -33 -22 -30 -78 3 -53 5 -57 30 -60 18 -2 28
-11 32 -28 9 -35 -1 -46 -34 -39 -33 7 -45 -7 -30 -35 14 -25 46 -25 88 0 24
15 32 27 32 48 0 44 -20 90 -41 97 -25 8 -25 35 0 42 25 6 34 29 21 54 -13 24
-27 24 -68 -1z"/>
<path d="M18642 8238 c-22 -46 -47 -170 -41 -203 3 -12 12 -20 24 -20 16 0 21
8 23 35 5 56 19 58 42 6 23 -56 49 -59 64 -8 5 17 14 32 20 32 17 0 36 -21 36
-41 0 -9 6 -22 14 -28 31 -26 32 48 1 197 -8 35 -16 67 -20 70 -12 13 -38 -29
-49 -80 -17 -71 -35 -68 -62 10 -12 34 -24 65 -26 68 -3 2 -14 -15 -26 -38z"/>
<path d="M14923 8252 c-104 -3 -117 -12 -88 -56 14 -21 15 -32 7 -54 -15 -38
-22 -163 -11 -184 5 -10 16 -18 23 -18 30 0 41 33 46 139 5 99 6 106 25 103
37 -6 47 -32 41 -107 -7 -94 3 -139 32 -143 31 -5 38 23 41 143 1 100 8 122
33 112 10 -3 18 -38 26 -104 6 -55 14 -107 18 -116 8 -22 44 -32 56 -16 12 19
3 134 -15 185 -14 39 -14 43 5 62 49 48 -9 61 -239 54z"/>
<path d="M15438 8129 c-23 -13 -23 -32 2 -54 21 -19 27 -60 10 -70 -15 -9 -12
-42 6 -60 13 -13 40 -15 160 -14 169 2 178 6 145 71 l-21 42 26 27 c29 31 24
56 -14 62 -52 9 -297 6 -314 -4z"/>
<path d="M17875 7878 c-3 -13 -4 -225 -3 -473 3 -392 5 -450 18 -450 13 0 15
59 15 469 0 359 -3 470 -12 473 -7 3 -15 -6 -18 -19z"/>
<path d="M7255 7843 c-11 -3 -23 -8 -27 -12 -13 -12 -11 -902 2 -915 8 -8 256
-12 874 -14 796 -2 864 -1 877 14 10 12 14 47 14 123 0 95 -2 106 -19 109 -28
6 -36 -15 -36 -93 0 -38 -4 -76 -8 -82 -6 -10 -189 -13 -822 -13 -695 -1 -815
1 -828 14 -12 12 -14 77 -13 406 1 276 4 397 12 406 6 8 29 14 50 14 42 0 57
13 39 35 -12 15 -71 18 -115 8z"/>
<path d="M3198 7338 c-11 -11 -35 -24 -52 -27 -23 -5 -36 -17 -52 -46 -15 -29
-27 -40 -43 -39 -26 1 -28 -7 -35 -153 -3 -83 -1 -116 9 -129 11 -15 15 -16
29 -5 9 7 16 24 16 37 0 31 16 39 45 20 13 -9 33 -16 44 -16 13 0 27 -12 36
-30 9 -16 22 -30 30 -30 8 0 27 14 42 30 17 20 36 30 54 30 18 0 32 7 39 19
11 22 11 256 0 287 -6 14 -20 23 -43 27 -20 3 -45 15 -56 26 -26 26 -36 26
-63 -1z"/>
<path d="M3890 7345 c-14 -8 -38 -21 -54 -29 -29 -14 -30 -15 -32 -109 -3 -92
-2 -95 22 -106 14 -6 43 -11 64 -11 54 0 51 -20 -2 -21 -88 -2 -120 -29 -83
-70 14 -15 29 -18 76 -15 55 3 58 2 69 -25 19 -46 56 -44 73 4 4 11 17 17 39
17 38 0 98 33 98 53 0 8 -11 19 -25 25 -29 13 -31 24 -10 42 34 28 4 69 -51
70 -37 0 -57 20 -52 52 3 20 8 23 40 20 54 -5 103 24 91 55 -4 9 -28 13 -87
13 -72 0 -86 3 -116 25 -19 14 -34 25 -34 25 -1 0 -12 -7 -26 -15z"/>
<path d="M3408 7328 c-13 -25 -19 -349 -6 -380 7 -16 24 -18 166 -18 194 0
204 4 178 71 -10 24 -22 50 -28 57 -19 23 -45 13 -56 -20 l-10 -33 -1 42 c-1
23 4 54 9 69 9 23 15 26 40 21 22 -5 30 -2 35 12 10 33 -5 51 -41 51 -28 0
-36 5 -45 26 -15 42 -3 61 43 68 59 10 82 24 67 42 -9 11 -45 14 -175 14 -159
0 -164 -1 -176 -22z"/>
<path d="M4195 7340 c-12 -19 -16 -369 -5 -390 14 -26 44 -25 62 2 13 20 18
21 45 9 34 -14 126 -9 147 8 12 10 16 8 21 -8 8 -26 54 -39 66 -20 14 23 11
372 -4 392 -10 15 -27 17 -117 15 l-105 -3 3 -43 c4 -48 -10 -72 -41 -72 -18
0 -19 4 -13 60 l7 60 -30 0 c-16 0 -33 -5 -36 -10z"/>
<path d="M5081 7279 c-27 -44 -19 -58 31 -51 40 5 41 4 33 -19 -16 -53 -17
-95 -1 -108 17 -14 22 -66 7 -75 -4 -3 -23 6 -42 19 -29 22 -34 23 -42 9 -23
-42 29 -102 79 -90 14 4 37 18 51 32 23 23 25 30 18 82 -3 31 -7 85 -9 119 -1
50 -6 67 -26 88 -34 36 -75 34 -99 -6z"/>
<path d="M5616 7284 c-28 -29 -35 -78 -12 -87 8 -3 27 3 41 15 19 15 29 18 38
9 18 -18 -19 -118 -59 -158 -23 -23 -34 -43 -34 -63 l0 -30 74 0 c58 0 75 3
80 16 9 23 8 24 -24 35 -16 6 -30 15 -30 20 0 4 14 36 31 70 35 68 36 126 5
174 -23 35 -74 34 -110 -1z"/>
<path d="M5831 7296 c-12 -14 -31 -111 -31 -158 0 -26 3 -28 39 -28 43 0 59
-21 46 -60 -8 -24 -32 -26 -63 -4 -20 14 -23 14 -28 0 -11 -29 5 -63 36 -76
25 -10 34 -9 62 7 40 23 54 68 44 137 -6 39 -13 51 -37 64 -33 19 -36 53 -6
58 36 5 47 14 47 38 0 13 -7 27 -16 30 -28 11 -81 6 -93 -8z"/>
<path d="M6007 7293 c-3 -10 -9 -56 -12 -103 -4 -47 -13 -98 -21 -114 -22 -45
-18 -93 8 -102 28 -9 48 18 49 65 0 20 4 45 9 56 7 18 8 17 15 -10 11 -50 26
-83 45 -100 16 -15 19 -14 38 10 11 14 26 49 33 77 10 42 14 49 20 33 4 -11 8
-39 8 -62 1 -34 6 -46 27 -59 22 -15 27 -15 35 -3 12 19 11 29 -6 134 -8 50
-15 109 -15 131 0 45 -18 68 -47 62 -10 -2 -19 -12 -21 -23 -1 -11 -11 -40
-21 -65 -11 -25 -23 -56 -29 -70 -9 -24 -10 -23 -22 20 -6 25 -16 50 -20 55
-5 6 -12 26 -17 45 -10 40 -47 55 -56 23z"/>
<path d="M4919 7279 c-9 -18 -7 -25 15 -48 25 -26 26 -32 26 -138 0 -112 7
-136 30 -108 9 11 12 57 11 156 -1 78 -4 145 -7 150 -11 18 -63 10 -75 -12z"/>
<path d="M5445 7279 c-5 -14 0 -28 14 -43 18 -19 21 -37 23 -136 l3 -115 25 0
c24 0 25 3 30 74 7 111 -2 220 -20 231 -28 18 -68 12 -75 -11z"/>
<path d="M5631 6676 c-8 -10 -11 -246 -11 -876 0 -637 -2 -866 -11 -876 -15
-18 -34 -18 -64 2 l-25 16 1 719 c1 555 -2 723 -11 734 -17 21 -292 22 -309 2
-23 -28 9 -37 136 -37 111 0 123 -2 133 -19 7 -14 9 -250 8 -723 l-3 -703
-585 -3 c-322 -1 -595 0 -607 3 -16 4 -24 15 -29 40 -5 28 -11 35 -30 35 -16
0 -24 -6 -25 -17 -5 -179 -4 -281 3 -295 5 -10 18 -18 28 -18 18 0 20 7 20 84
0 58 4 87 14 95 9 8 297 11 1047 12 569 0 1041 -2 1049 -5 13 -5 15 -59 12
-409 -2 -246 -7 -406 -13 -412 -5 -5 -24 -15 -42 -21 -36 -12 -49 -47 -22 -58
23 -8 92 4 105 19 6 7 11 173 12 446 l3 434 550 0 550 0 5 -87 c5 -92 10 -104
35 -95 12 5 15 26 15 111 0 97 -2 106 -22 120 -20 14 -124 16 -918 16 -709 0
-900 3 -914 13 -16 12 -17 67 -16 876 0 633 -3 867 -11 877 -15 18 -43 18 -58
0z"/>
<path d="M208 6175 c-67 -45 -91 -165 -33 -165 19 0 30 9 42 35 19 39 54 55
78 35 20 -17 19 -102 -2 -143 -9 -18 -28 -48 -43 -67 -161 -209 -160 -220 10
-220 117 0 150 12 150 55 0 30 -26 45 -79 45 -52 0 -54 19 -6 78 91 116 95
287 7 347 -46 32 -78 32 -124 0z"/>
<path d="M538 6181 c-15 -12 -41 -46 -57 -75 -30 -52 -31 -56 -31 -186 0 -116
3 -139 22 -179 47 -99 93 -121 167 -83 28 14 40 30 63 86 25 61 28 81 28 175
-1 93 -4 114 -29 170 -29 69 -57 97 -106 107 -22 4 -38 0 -57 -15z m76 -113
c21 -33 39 -140 34 -196 -5 -51 -35 -124 -54 -129 -6 -2 -22 5 -35 16 -23 19
-24 23 -24 161 0 129 2 143 19 156 28 20 43 18 60 -8z"/>
<path d="M1120 6164 c-43 -39 -55 -63 -45 -94 6 -20 55 -30 55 -11 0 16 61 32
76 20 22 -18 17 -43 -16 -84 -42 -53 -39 -76 15 -121 37 -30 45 -42 45 -70 0
-67 -84 -83 -116 -22 -12 23 -21 29 -42 26 -23 -3 -27 -8 -30 -40 -3 -32 3
-44 39 -83 37 -40 46 -45 86 -45 38 0 50 6 91 44 l46 44 1 75 c0 65 -3 79 -22
99 -26 28 -30 79 -9 97 29 25 29 68 0 122 -47 86 -109 102 -174 43z"/>
<path d="M1453 6189 c-29 -11 -34 -35 -53 -254 -6 -66 -17 -141 -25 -166 -26
-83 -12 -129 35 -114 36 11 48 45 53 148 2 54 6 100 9 103 3 2 12 2 21 -2 10
-3 18 -24 22 -57 4 -29 16 -74 27 -102 11 -27 24 -60 29 -72 10 -26 50 -31 67
-10 6 7 16 33 21 58 6 25 17 58 26 75 8 16 15 38 15 49 0 34 12 66 23 62 13
-4 34 -85 43 -164 8 -79 21 -98 58 -89 l28 7 -7 92 c-4 51 -11 112 -16 137 -9
41 -18 101 -37 245 -7 49 -8 50 -43 53 -36 3 -37 2 -61 -60 -14 -35 -33 -103
-43 -153 -10 -49 -22 -94 -26 -99 -17 -19 -37 17 -48 82 -7 37 -20 90 -31 117
-10 28 -22 62 -25 77 -6 33 -32 49 -62 37z"/>
<path d="M11088 6073 c-9 -10 -24 -38 -33 -63 -40 -107 -55 -154 -55 -172 0
-32 30 -78 56 -88 37 -15 48 -12 78 15 21 20 26 33 26 75 0 42 -5 58 -31 90
-31 38 -31 39 -18 89 15 59 4 84 -23 54z"/>
<path d="M11236 6068 c-3 -13 -12 -54 -21 -92 -9 -37 -17 -103 -18 -145 -2
-71 -1 -76 20 -79 17 -2 23 3 27 20 16 85 22 103 36 103 9 0 17 -15 22 -42 10
-60 25 -85 50 -81 22 3 27 14 48 96 15 59 34 49 41 -22 7 -67 29 -97 53 -76
20 16 20 51 0 125 -9 33 -19 91 -23 129 -4 50 -11 72 -23 80 -28 17 -48 -13
-67 -95 -24 -104 -43 -105 -66 -2 -16 74 -33 103 -62 103 -7 0 -15 -10 -17
-22z"/>
<path d="M832 5788 c-16 -16 -16 -100 0 -116 7 -7 30 -12 53 -12 53 0 65 13
65 70 0 57 -12 70 -65 70 -23 0 -46 -5 -53 -12z"/>
<path d="M1080 5247 l-25 -13 0 -1389 0 -1390 55 0 55 0 3 1370 c1 754 0 1379
-3 1391 -2 11 -16 26 -30 32 -31 14 -25 14 -55 -1z"/>
<path d="M8696 4895 c-18 -13 -19 -26 -17 -112 1 -68 7 -102 16 -112 8 -8 17
-12 20 -9 3 3 8 42 10 87 2 44 6 85 10 91 4 7 184 10 540 10 518 0 535 -1 545
-19 6 -13 10 -160 10 -410 l0 -390 -29 -15 c-30 -16 -47 -44 -34 -57 16 -15
69 -14 93 1 13 8 16 73 20 447 l5 438 550 0 550 0 5 -95 c3 -53 9 -95 15 -95
14 0 23 204 10 229 -11 21 -12 21 -1155 23 -993 2 -1148 0 -1164 -12z"/>
<path d="M12152 4892 c-15 -15 -18 -35 -17 -119 0 -56 4 -105 8 -109 4 -5 16
-3 25 2 13 9 17 28 19 89 1 53 5 80 15 86 7 5 249 8 538 6 l525 -2 3 -408 2
-408 -26 -24 c-41 -38 -27 -52 63 -58 54 -3 82 -1 91 7 18 18 6 41 -31 57
l-32 14 0 410 0 410 684 3 c471 1 688 -1 695 -8 6 -6 11 -46 11 -88 1 -42 4
-83 9 -90 18 -29 26 6 26 113 0 103 -2 115 -19 125 -13 7 -435 10 -1295 10
-1211 0 -1277 -1 -1294 -18z"/>
<path d="M17847 4874 c-4 -4 -7 -220 -7 -479 0 -402 2 -474 15 -485 12 -10 15
-8 20 12 3 12 4 232 3 487 -3 445 -6 490 -31 465z"/>
<path d="M2817 3857 c-41 -36 -45 -51 -20 -80 16 -17 17 -20 1 -31 -13 -10
-17 -34 -19 -132 -2 -65 0 -124 3 -130 10 -15 84 -38 102 -31 10 4 16 19 16
41 0 45 12 51 66 36 39 -11 45 -17 54 -51 15 -55 45 -54 60 1 9 34 16 42 41
47 23 4 29 10 27 26 -2 13 -13 23 -28 27 -20 5 -25 12 -25 35 0 23 5 31 22 33
41 6 40 51 -3 70 -32 15 -32 50 0 58 33 8 38 26 20 69 -15 37 -47 48 -58 20
-7 -20 -23 -19 -53 5 -28 21 -53 13 -53 -17 0 -20 -47 -9 -76 18 -27 25 -32
24 -77 -14z"/>
<path d="M3235 3878 c-11 -6 -26 -18 -32 -26 -19 -23 -16 -119 4 -152 15 -26
15 -29 0 -44 -21 -21 -28 -65 -25 -141 l3 -60 175 -2 c127 -2 176 1 182 10 4
7 8 46 8 87 0 57 -5 82 -19 104 -17 26 -18 32 -5 50 8 12 14 45 14 82 0 60 -1
63 -36 83 -30 18 -51 21 -142 21 -59 0 -116 -6 -127 -12z"/>
<path d="M3670 3880 c-8 -5 -28 -11 -43 -15 -36 -7 -50 -45 -42 -108 6 -38 12
-51 31 -59 30 -14 30 -25 2 -48 -19 -15 -23 -30 -26 -94 -3 -44 0 -82 6 -89 8
-9 56 -12 179 -12 l168 0 6 155 c6 140 0 252 -12 265 -3 2 -21 0 -40 -5 -54
-16 -147 -14 -174 4 -27 18 -34 19 -55 6z"/>
<path d="M4193 3879 c-6 -6 -29 -10 -51 -7 -31 2 -43 -1 -52 -15 -9 -15 -8
-23 6 -38 17 -19 17 -22 2 -47 -9 -15 -23 -27 -30 -27 -16 0 -23 62 -9 79 15
18 -20 49 -43 40 -14 -5 -16 -14 -11 -41 4 -21 2 -40 -6 -49 -7 -9 -9 -26 -4
-46 4 -18 9 -82 11 -141 1 -60 5 -115 8 -123 4 -11 36 -14 158 -14 84 0 159 4
167 9 7 5 11 17 7 28 -3 10 -8 94 -10 185 -2 91 -7 171 -10 177 -4 6 -20 11
-35 11 -15 0 -36 7 -47 15 -23 17 -36 19 -51 4z"/>
<path d="M4446 3870 c-21 -10 -41 -22 -45 -28 -3 -5 -6 -95 -5 -199 l1 -188
155 -2 c143 -2 158 -1 181 18 l26 20 -1 173 c0 96 -4 180 -9 187 -6 10 -36 14
-111 14 -64 0 -111 5 -125 13 -12 6 -23 12 -25 11 -2 0 -20 -9 -42 -19z"/>
<path d="M6880 3869 c-21 -12 -53 -18 -84 -17 -82 1 -86 -9 -86 -218 0 -152 2
-175 16 -181 9 -3 25 -1 35 5 11 7 20 8 24 2 3 -6 26 -10 50 -10 66 0 75 20
68 143 -7 114 -19 136 -79 146 -61 10 -52 35 14 39 64 4 78 -6 87 -61 4 -23
11 -56 17 -73 8 -24 7 -37 -6 -62 -30 -58 -18 -92 32 -92 10 0 23 -9 30 -21 9
-14 21 -19 40 -17 30 3 33 21 11 75 -12 29 -11 37 9 78 25 51 27 76 11 92 -9
9 -17 9 -31 0 -16 -10 -22 -9 -34 7 -22 30 -18 76 6 77 39 3 43 4 53 20 13 20
2 65 -18 73 -8 3 -26 1 -39 -5 -18 -8 -30 -7 -54 5 -17 9 -32 15 -34 15 -2 -1
-19 -10 -38 -20z"/>
<path d="M7158 3870 c-14 -10 -31 -39 -37 -63 -11 -39 -11 -47 8 -78 26 -43
26 -57 -1 -86 -18 -19 -22 -37 -24 -91 -3 -107 -13 -102 199 -99 l182 2 3 81
c3 75 1 84 -23 112 -20 24 -24 36 -17 49 5 10 13 44 16 76 7 54 6 59 -23 87
-29 30 -30 30 -144 30 -98 0 -118 -3 -139 -20z"/>
<path d="M7595 3883 c-22 -4 -75 -103 -75 -141 0 -12 9 -30 20 -39 18 -15 20
-30 20 -123 0 -58 4 -111 8 -118 7 -9 44 -12 153 -10 126 3 144 5 147 20 2 9
-6 25 -17 35 -19 15 -20 25 -15 88 4 39 14 83 24 100 24 39 12 111 -26 160
l-26 35 -97 -1 c-53 -1 -105 -4 -116 -6z"/>
<path d="M8070 3874 c-14 -7 -49 -14 -77 -14 -49 0 -54 -2 -70 -32 -15 -28
-17 -56 -14 -198 1 -90 5 -168 7 -172 9 -15 41 -8 59 12 13 15 31 20 65 20 34
0 52 -5 65 -20 10 -11 28 -20 40 -20 12 0 30 9 40 20 11 12 31 20 51 20 18 0
36 5 39 10 11 18 -5 49 -28 53 l-22 4 23 2 c18 1 22 7 22 35 0 39 -13 53 -55
58 -22 2 -30 8 -30 23 0 16 8 21 43 23 23 2 42 6 43 10 0 4 1 39 2 77 l2 70
-64 3 c-35 2 -73 10 -85 18 -24 16 -23 16 -56 -2z"/>
<path d="M9443 3867 c-50 -26 -56 -36 -41 -77 7 -23 7 -43 -2 -74 -8 -30 -9
-50 -2 -62 6 -12 7 -49 2 -99 -5 -55 -5 -84 3 -93 9 -11 46 -13 170 -10 210 4
198 -10 194 223 -2 96 -6 177 -10 181 -13 13 -115 17 -148 5 -27 -9 -39 -8
-74 9 -48 23 -39 24 -92 -3z"/>
<path d="M10484 3875 c-10 -8 -31 -15 -46 -15 -30 0 -40 -16 -26 -43 5 -10 5
-31 -1 -53 -12 -44 -5 -64 23 -64 12 0 31 -6 41 -14 18 -13 18 -14 -4 -25 -12
-7 -31 -9 -41 -6 -11 4 -20 3 -21 -2 -1 -4 -3 -35 -5 -68 -6 -98 37 -145 131
-145 30 0 42 30 19 47 -10 7 -24 13 -31 13 -7 0 -16 11 -19 26 -8 33 28 74 67
74 29 0 46 -14 29 -25 -5 -3 -10 -19 -10 -34 0 -39 56 -91 98 -91 36 0 52 21
32 45 -10 11 -9 18 5 31 11 11 14 25 10 45 -5 21 -2 31 9 35 18 7 21 30 5 39
-6 4 -32 8 -60 9 -55 3 -64 8 -55 31 5 13 14 15 45 10 50 -8 76 13 59 50 -9
19 -7 29 11 53 11 17 21 33 21 36 0 4 -25 17 -56 31 -51 22 -58 23 -77 10 -28
-19 -84 -19 -103 0 -19 19 -25 19 -50 0z"/>
<path d="M10811 3877 c-14 -14 -14 -40 1 -55 8 -8 9 -21 1 -49 -14 -47 -15
-280 -2 -304 8 -16 26 -18 179 -18 l170 0 0 24 c0 24 -21 38 -44 29 -22 -8
-42 66 -27 95 7 11 20 21 29 21 35 0 42 21 42 126 0 102 0 103 -30 124 -27 19
-41 21 -169 19 -84 -1 -144 -6 -150 -12z"/>
<path d="M11206 3874 c-23 -22 -20 -47 9 -74 14 -13 25 -27 25 -32 0 -4 -11
-18 -25 -30 -24 -21 -25 -26 -25 -138 0 -157 -10 -150 204 -150 141 0 168 2
173 16 3 8 -4 25 -17 39 -22 23 -22 27 -10 67 15 51 14 228 -2 264 -11 23 -14
24 -127 24 -83 0 -124 4 -145 15 -35 19 -41 19 -60 -1z"/>
<path d="M11665 3872 c-16 -8 -37 -19 -45 -22 -8 -4 -14 -16 -12 -26 2 -11 4
-41 5 -69 2 -46 4 -50 35 -59 42 -12 41 -33 -3 -42 -19 -3 -35 -9 -36 -13 -9
-77 -6 -119 13 -149 31 -50 101 -70 129 -36 11 13 8 19 -15 37 -35 28 -33 71
4 99 30 22 65 15 54 -11 -19 -45 -15 -58 23 -94 27 -27 47 -37 70 -37 35 0 51
16 34 33 -17 17 -13 41 10 55 12 8 18 19 15 28 -3 8 0 26 6 39 17 37 -2 50
-70 50 -50 0 -57 2 -57 20 0 17 7 20 53 21 30 1 58 6 62 10 4 5 10 41 12 79 3
69 3 70 -24 73 -14 2 -32 10 -38 18 -16 18 -44 18 -60 -1 -16 -19 -67 -19
-100 0 -30 17 -27 17 -65 -3z"/>
<path d="M12099 3873 c-8 -9 -33 -25 -56 -35 -53 -24 -57 -30 -33 -58 24 -28
24 -33 4 -76 -17 -36 -15 -48 18 -98 9 -13 10 -20 2 -23 -6 -2 -20 -10 -30
-18 -15 -11 -17 -17 -8 -32 12 -19 18 -20 96 -22 42 -1 49 -4 63 -31 22 -42
62 -42 76 0 11 31 36 45 63 34 22 -8 76 15 76 32 0 17 -40 34 -80 34 -16 0
-32 5 -35 10 -4 6 8 10 27 10 19 0 43 6 53 14 16 12 18 19 10 43 -9 23 -18 29
-53 34 -49 6 -58 13 -67 52 -7 26 -6 27 33 27 22 0 54 3 71 6 27 6 32 11 29
33 -3 26 -4 26 -91 27 -82 0 -90 2 -113 27 -29 31 -37 33 -55 10z"/>
<path d="M14868 3874 c-11 -11 -36 -17 -71 -19 -32 -1 -66 -9 -81 -19 l-26
-17 2 -182 3 -182 79 -3 c48 -1 84 2 92 9 11 9 13 35 8 128 -4 64 -11 124 -15
133 -6 11 -24 18 -52 20 -29 2 -42 8 -42 18 0 12 13 15 59 15 l58 0 29 -80
c29 -78 29 -80 11 -105 -27 -38 -33 -59 -21 -82 8 -14 17 -18 33 -14 18 4 26
0 35 -20 9 -20 17 -25 39 -22 21 2 28 9 30 32 2 16 -1 33 -7 39 -18 18 -13 52
14 91 28 41 34 96 10 96 -8 0 -26 -5 -40 -12 -32 -15 -47 1 -43 47 2 24 8 31
30 33 18 2 30 12 39 33 11 27 10 33 -7 50 -17 17 -24 18 -52 8 -27 -9 -36 -8
-51 5 -22 20 -42 20 -63 0z"/>
<path d="M15138 3869 c-36 -27 -45 -87 -23 -152 15 -46 15 -50 -1 -69 -22 -23
-29 -172 -9 -188 7 -6 82 -9 181 -7 l169 2 3 89 c3 80 1 91 -19 112 -22 23
-22 25 -6 59 26 55 22 113 -10 147 -26 28 -29 28 -142 28 -100 -1 -120 -3
-143 -21z"/>
<path d="M15551 3864 c-12 -15 -21 -36 -21 -48 0 -11 -7 -30 -15 -40 -19 -25
-19 -60 0 -76 11 -9 15 -35 15 -106 0 -51 4 -104 10 -118 l10 -26 145 0 c122
0 147 2 152 16 3 8 -4 25 -16 38 -22 24 -27 51 -11 61 6 3 10 32 10 63 0 33 7
65 14 75 10 13 12 27 5 50 -5 18 -9 43 -9 56 0 14 -12 38 -27 53 -26 27 -30
28 -134 28 -104 0 -108 -1 -128 -26z"/>
<path d="M16050 3875 c-14 -8 -49 -14 -78 -15 -47 0 -54 -3 -62 -26 -12 -32
-13 -354 -1 -373 9 -14 14 -13 61 14 36 21 84 19 105 -5 23 -25 56 -25 97 0
18 11 43 20 56 20 25 0 38 22 25 42 -4 7 -8 36 -8 63 l0 50 -40 3 c-67 6 -72
52 -5 52 49 0 64 18 52 62 -6 21 -5 41 1 56 14 31 -3 42 -68 42 -27 0 -61 7
-75 15 -14 8 -27 14 -30 14 -3 0 -16 -6 -30 -14z"/>
<path d="M6473 3873 c-7 -2 -17 -22 -23 -44 -13 -47 -31 -50 -60 -9 -29 41
-70 42 -70 1 0 -16 7 -44 15 -63 12 -31 12 -38 -1 -57 -9 -12 -14 -31 -12 -44
3 -19 10 -22 55 -25 54 -3 80 -21 69 -47 -4 -11 -21 -15 -65 -15 -40 0 -61 -4
-64 -13 -9 -25 8 -36 63 -39 51 -3 56 -5 69 -35 12 -26 21 -33 43 -33 23 0 29
6 36 33 8 30 11 32 63 38 58 6 89 16 89 29 0 13 -29 20 -86 20 -41 0 -56 4
-61 16 -9 24 23 44 69 44 43 0 64 26 52 63 -4 12 -6 47 -5 78 3 72 -12 89 -79
89 -27 0 -52 5 -55 10 -7 11 -22 12 -42 3z"/>
<path d="M12415 3863 c-8 -23 -17 -372 -9 -395 7 -24 43 -23 70 3 18 17 26 19
42 10 24 -13 97 -13 127 -2 14 6 28 2 44 -10 60 -47 71 -18 71 189 0 157 -2
171 -21 196 -21 26 -23 27 -123 24 -100 -3 -101 -3 -101 -28 0 -24 3 -25 75
-30 70 -5 76 -7 88 -33 19 -39 -1 -62 -24 -29 -13 18 -25 22 -74 22 -49 0 -61
-4 -74 -21 -20 -30 -51 -18 -42 16 3 14 9 36 12 50 11 44 -45 79 -61 38z"/>
<path d="M8595 3848 c-30 -83 -35 -111 -35 -190 0 -117 33 -198 81 -198 29 0
34 42 10 88 -28 55 -29 162 -2 230 13 33 16 53 10 65 -11 20 -57 23 -64 5z"/>
<path d="M8782 3821 c-39 -31 -52 -49 -61 -85 -15 -60 -14 -84 4 -137 30 -86
88 -125 166 -113 25 4 48 1 70 -10 59 -29 74 -19 57 37 -9 30 -8 48 7 97 18
59 18 62 -1 117 -12 36 -33 72 -56 95 -34 34 -44 38 -87 38 -42 0 -56 -6 -99
-39z m171 -85 c45 -73 35 -106 -33 -103 l-45 2 3 -42 c2 -24 -1 -43 -6 -43
-21 0 -66 30 -79 52 -25 45 -11 138 24 166 9 6 37 12 62 12 43 -1 48 -3 74
-44z"/>
<path d="M9143 3831 c-55 -40 -66 -72 -62 -180 4 -83 6 -92 34 -121 16 -16 46
-35 67 -41 85 -22 204 32 167 77 -15 18 -43 18 -81 -2 -63 -32 -138 22 -138
100 0 29 28 98 44 108 21 14 103 9 116 -7 19 -23 57 -19 65 7 6 17 -1 28 -31
54 -33 28 -47 33 -90 34 -41 0 -59 -6 -91 -29z"/>
<path d="M9820 3838 c1 -13 9 -48 20 -78 11 -30 19 -71 20 -90 0 -40 -24 -126
-41 -147 -17 -19 4 -63 31 -63 23 0 48 44 76 133 20 63 14 107 -28 215 -18 46
-24 52 -49 52 -23 0 -29 -4 -29 -22z"/>
<path d="M17852 3774 c-16 -12 -15 -15 11 -36 28 -23 29 -25 18 -81 -6 -31
-15 -66 -21 -78 -13 -23 -4 -82 11 -73 37 23 100 247 75 271 -12 12 -76 10
-94 -3z"/>
<path d="M18285 3765 c-14 -13 -25 -31 -25 -40 0 -24 31 -31 46 -10 7 9 19 15
27 12 24 -9 -1 -91 -41 -138 -30 -34 -33 -44 -24 -63 9 -20 17 -23 66 -22 63
0 69 11 39 64 -16 28 -16 31 5 66 30 50 29 100 -3 131 -31 32 -59 32 -90 0z"/>
<path d="M18740 3753 c-13 -21 -26 -51 -29 -66 -9 -44 -23 -37 -37 22 -8 29
-17 57 -20 62 -5 8 -44 13 -44 6 0 -44 -37 -177 -49 -177 -3 1 -18 28 -33 61
l-28 61 22 17 c28 23 16 41 -28 41 -28 0 -36 -5 -44 -26 -20 -52 -12 -94 24
-128 38 -36 37 -56 -4 -56 -39 0 -46 -17 -19 -46 31 -33 55 -30 81 11 13 19
26 35 29 35 3 0 11 -12 17 -26 15 -32 28 -24 36 21 4 19 13 35 19 35 18 0 37
-21 37 -41 0 -9 6 -22 14 -28 12 -10 18 -7 30 18 9 16 24 34 33 40 15 8 20 4
28 -27 14 -48 39 -49 43 -2 5 44 -26 200 -43 218 -10 11 -16 6 -35 -25z"/>
<path d="M17847 3403 c-3 -5 -6 -214 -6 -464 0 -372 2 -460 14 -475 13 -18 14
-18 19 6 4 14 5 229 4 479 -2 333 -6 455 -15 458 -6 2 -13 0 -16 -4z"/>
<path d="M11419 2360 c-23 -23 -30 -37 -27 -62 4 -39 21 -46 45 -19 20 24 51
28 59 7 6 -16 -36 -95 -71 -136 -27 -31 -49 -85 -40 -99 10 -17 140 -14 154 3
13 15 8 21 -32 49 -18 12 -17 15 7 71 50 114 24 215 -57 216 -5 0 -22 -13 -38
-30z"/>
<path d="M11247 2373 c-13 -12 -7 -61 8 -73 13 -11 15 -32 12 -116 -4 -106 6
-144 37 -144 22 0 26 24 26 160 0 152 -7 180 -48 180 -16 0 -32 -3 -35 -7z"/>
<path d="M11615 2368 c-2 -7 -6 -35 -8 -63 -3 -27 -12 -93 -20 -145 -13 -74
-14 -98 -4 -107 21 -22 40 3 51 68 12 65 32 88 40 47 2 -13 8 -43 13 -67 9
-50 33 -72 56 -53 8 7 20 39 27 73 10 46 17 59 29 57 12 -2 17 -18 21 -58 3
-30 9 -61 13 -67 12 -19 45 -16 51 5 6 19 -5 89 -24 152 -5 19 -10 54 -10 77
0 57 -15 93 -39 93 -25 0 -28 -5 -50 -92 -11 -43 -24 -73 -32 -73 -11 0 -38
69 -53 138 -5 21 -12 27 -32 27 -13 0 -26 -6 -29 -12z"/>
<path d="M4307 2333 c-40 -138 -66 -343 -47 -372 11 -19 38 -7 49 21 5 13 12
51 16 86 10 89 32 98 46 20 20 -115 35 -143 68 -130 22 8 31 23 31 51 0 13 12
49 27 80 25 52 27 54 34 31 4 -14 7 -50 8 -81 1 -66 20 -100 48 -83 25 15 27
54 7 122 -9 31 -20 99 -24 151 -5 75 -11 97 -26 108 -17 12 -21 11 -40 -10
-11 -13 -27 -53 -34 -88 -7 -35 -17 -72 -22 -81 -13 -27 -37 -21 -43 10 -13
66 -37 158 -43 163 -4 4 -17 10 -29 13 -16 5 -23 2 -26 -11z"/>
<path d="M3880 2321 c-16 -31 -12 -47 15 -59 25 -12 25 -12 25 -146 0 -74 3
-141 6 -150 8 -20 28 -20 47 -1 22 21 21 340 0 361 -22 21 -80 18 -93 -5z"/>
<path d="M4088 2323 c-35 -39 -51 -170 -24 -192 9 -8 21 -8 40 -1 41 15 56 4
56 -45 0 -57 -20 -75 -60 -52 -50 30 -76 19 -64 -27 6 -26 62 -66 93 -66 36 0
101 98 101 152 0 36 -43 103 -78 122 -39 21 -31 56 13 56 27 0 59 34 52 55 -9
23 -109 21 -129 -2z"/>
<path d="M7968 2227 c-33 -27 -45 -69 -25 -85 11 -9 19 -7 37 13 27 29 45 32
54 9 15 -40 8 -59 -64 -159 -47 -65 -53 -81 -34 -100 21 -20 127 -21 144 0 16
20 5 50 -25 63 -30 14 -32 33 -5 57 50 46 53 163 3 202 -35 29 -51 29 -85 0z"/>
<path d="M15361 2231 c-23 -23 -31 -60 -34 -151 l-2 -65 43 1 c36 1 43 -3 48
-22 3 -12 4 -33 2 -45 -2 -20 -9 -24 -33 -23 -16 1 -40 5 -52 9 -33 11 -40
-18 -13 -55 20 -29 26 -31 73 -28 48 3 53 5 74 43 28 49 29 96 3 153 -15 33
-24 42 -44 42 -31 0 -44 36 -26 69 9 18 17 21 45 15 27 -5 34 -2 39 14 11 33
-3 52 -39 52 -18 0 -40 3 -48 6 -9 3 -25 -4 -36 -15z"/>
<path d="M7790 2220 l-25 -19 23 -23 c20 -22 22 -35 24 -136 1 -117 11 -150
42 -139 24 9 24 297 0 321 -20 21 -33 20 -64 -4z"/>
<path d="M8157 2222 c-12 -13 -17 -36 -17 -79 0 -34 -7 -89 -16 -123 -18 -70
-13 -110 14 -110 29 0 42 21 42 70 0 73 15 81 35 19 10 -30 25 -65 33 -78 l16
-23 28 31 c16 18 28 43 28 59 0 15 4 34 10 42 7 11 11 9 19 -13 6 -16 11 -38
11 -51 0 -12 11 -33 24 -46 l25 -23 6 26 c8 29 4 82 -14 197 -19 117 -20 120
-40 120 -25 0 -32 -12 -61 -98 -14 -41 -28 -76 -32 -78 -4 -3 -10 8 -13 23
-12 55 -53 148 -67 151 -8 1 -22 -6 -31 -16z"/>
<path d="M15154 2215 c-16 -25 -16 -27 5 -55 19 -27 21 -42 21 -165 0 -116 2
-137 16 -142 9 -3 24 -2 33 4 13 9 16 36 18 175 3 178 -1 192 -49 203 -21 6
-30 2 -44 -20z"/>
<path d="M15566 2223 c-3 -10 -12 -64 -21 -120 -18 -123 -20 -239 -3 -249 20
-12 46 34 54 94 9 75 20 97 29 57 4 -17 11 -46 15 -65 4 -19 11 -47 14 -62 11
-50 76 -32 76 21 0 26 50 135 58 127 2 -3 7 -40 11 -83 5 -70 9 -79 31 -90 38
-19 47 10 31 110 -7 45 -15 118 -18 162 -7 109 -35 141 -81 92 -15 -15 -25
-45 -31 -91 -11 -75 -34 -114 -58 -95 -7 6 -13 26 -13 43 0 33 -14 92 -32 139
-12 31 -53 38 -62 10z"/>
<path d="M9885 2210 c-4 -7 -3 -15 1 -18 15 -11 1324 -3 1324 8 0 7 -228 10
-644 10 -354 0 -651 3 -659 6 -8 3 -18 0 -22 -6z"/>
<path d="M11936 2201 c-3 -5 0 -11 7 -12 31 -9 1347 2 1347 11 0 13 -1347 14
-1354 1z"/>
<path d="M2084 2168 c-3 -5 -3 -12 1 -16 9 -9 1674 -7 1683 2 3 4 0 11 -7 16
-20 12 -1669 11 -1677 -2z"/>
<path d="M4654 2168 c-3 -5 -3 -12 0 -15 10 -10 1690 -11 1703 -1 7 6 10 14 7
19 -7 12 -1703 9 -1710 -3z"/>
<path d="M13370 2060 c-25 -3 -43 -9 -40 -15 3 -7 300 -11 853 -12 748 -2 848
-1 845 12 -3 13 -104 15 -808 18 -443 1 -825 0 -850 -3z"/>
<path d="M15920 2051 c0 -21 39 -39 59 -26 6 3 377 6 825 5 506 0 817 3 820 9
4 5 2 13 -4 16 -8 5 -1345 6 -1600 2 -14 -1 -42 3 -62 7 -34 7 -38 6 -38 -13z"/>
<path d="M9946 1608 c-8 -13 -17 -36 -20 -53 -12 -58 -46 -341 -46 -380 0 -22
-9 -73 -20 -114 -27 -101 -26 -127 6 -148 24 -15 29 -15 52 -2 33 18 47 76 61
242 5 65 12 121 15 125 14 13 41 -17 49 -54 13 -64 24 -107 36 -139 6 -16 18
-61 27 -98 18 -73 36 -92 77 -82 29 8 66 98 91 225 10 47 20 96 24 109 7 24
37 50 46 40 3 -3 8 -45 11 -95 7 -103 42 -259 61 -275 21 -17 64 -2 75 28 7
18 5 50 -6 108 -8 45 -15 99 -15 121 0 21 -7 63 -15 93 -7 29 -17 90 -20 135
-14 180 -33 236 -79 236 -39 0 -62 -26 -80 -92 -9 -35 -24 -83 -33 -108 -8
-25 -19 -67 -24 -95 -13 -75 -34 -138 -47 -143 -16 -5 -31 37 -47 128 -27 150
-61 256 -93 293 -22 25 -68 22 -86 -5z"/>
<path d="M9119 1610 c-12 -7 -20 -36 -29 -97 -6 -49 -18 -127 -26 -175 -15
-99 -13 -111 23 -127 21 -10 31 -8 60 9 19 11 43 20 53 20 45 0 69 -100 41
-167 -9 -22 -22 -34 -43 -38 -26 -6 -36 -2 -68 30 -32 31 -43 36 -76 33 -32
-2 -40 -7 -42 -26 -2 -13 8 -41 22 -63 14 -21 26 -42 26 -46 0 -4 12 -20 27
-35 23 -25 34 -28 86 -28 76 0 114 26 156 110 26 51 31 72 31 135 0 79 -5 95
-48 165 -23 36 -39 48 -82 65 -59 23 -69 40 -51 88 10 26 13 27 86 27 72 0 76
1 85 26 31 79 1 104 -125 104 -49 0 -97 -5 -106 -10z"/>
<path d="M9641 1592 c-14 -16 -39 -60 -54 -98 -16 -38 -34 -76 -41 -84 -7 -8
-21 -35 -30 -59 -10 -25 -25 -56 -35 -70 -45 -66 -64 -167 -40 -212 8 -15 19
-20 47 -18 134 9 172 -10 172 -84 0 -47 13 -67 45 -67 33 0 45 20 45 72 0 40
5 54 30 80 21 22 30 41 30 65 0 23 -9 42 -30 65 l-30 31 0 191 c0 136 -4 196
-12 204 -22 22 -68 14 -97 -16z"/>
<path d="M2110 1340 c-66 -6 -82 -28 -71 -100 l6 -45 3134 -3 c2308 -1 3137 1
3147 9 19 15 19 113 1 128 -10 8 -844 12 -3088 13 -1691 2 -3099 1 -3129 -2z"/>
<path d="M11367 1323 c-23 -30 -22 -95 1 -116 17 -16 249 -17 3139 -17 2484 0
3123 3 3131 13 17 21 20 81 6 110 -13 25 -19 27 -72 27 -31 0 -1437 1 -3123 3
l-3066 2 -16 -22z"/>
</g>
</svg>
