<?xml version="1.0" standalone="no"?>
<!DOCTYPE svg PUBLIC "-//W3C//DTD SVG 20010904//EN"
 "http://www.w3.org/TR/2001/REC-SVG-20010904/DTD/svg10.dtd">
<svg version="1.0" xmlns="http://www.w3.org/2000/svg"
 width="1920.000000pt" height="1080.000000pt" viewBox="0 0 1920.000000 1080.000000"
 preserveAspectRatio="xMidYMid meet">
<metadata>
Created by potrace 1.14, written by Peter Selinger 2001-2017
</metadata>
<g transform="translate(0.000000,1080.000000) scale(0.100000,-0.100000)"
fill="#000000" stroke="none">
<path d="M255 10721 c-29 -6 -30 -9 -33 -65 -2 -32 -1 -65 3 -74 9 -23 36 6
33 36 -2 20 5 30 31 45 33 20 54 20 1997 22 1080 1 1967 5 1971 9 23 22 -49
27 -442 27 -231 0 -1120 2 -1975 4 -855 1 -1568 0 -1585 -4z"/>
<path d="M4358 10691 l-33 -13 25 -12 c36 -16 8833 -20 8864 -4 20 11 20 12
-9 21 -20 7 -805 11 -2275 12 -2461 1 -4104 2 -4730 3 -223 1 -416 1 -430 1
-83 -1 -490 1 -902 3 -386 2 -483 0 -510 -11z"/>
<path d="M13310 10680 c-13 -9 -13 -11 0 -20 20 -13 4319 -13 4340 0 8 5 11
13 6 17 -12 12 -4328 15 -4346 3z"/>
<path d="M17850 10650 c-26 -16 35 -19 425 -21 l406 -1 30 -26 c32 -27 33 -37
15 -152 l-6 -35 14 31 c8 17 22 36 30 43 12 10 16 32 16 82 0 64 -2 70 -25 81
-18 8 -35 8 -62 0 -25 -7 -56 -7 -93 -1 -64 10 -733 10 -750 -1z"/>
<path d="M2673 10612 c-32 -2 -56 -9 -65 -19 -7 -9 -17 -59 -22 -112 -14 -153
-14 -2737 1 -2752 8 -8 101 -12 325 -14 295 -2 614 -7 1428 -21 190 -4 638 -7
995 -7 693 -1 999 10 1043 39 13 9 54 27 90 40 63 24 138 55 172 73 92 48 262
147 271 157 6 8 16 14 21 14 5 0 21 9 35 19 25 21 73 32 207 52 97 14 174 39
229 77 23 16 61 42 85 57 24 16 48 38 54 49 6 12 22 33 35 48 32 33 59 149 42
179 -6 12 -8 28 -4 37 15 40 -7 102 -63 170 -55 68 -91 95 -172 132 -25 12
-63 30 -86 41 -23 10 -51 19 -62 19 -11 0 -33 5 -49 11 -15 6 -53 15 -84 20
-35 5 -100 31 -165 64 -60 30 -117 55 -127 55 -11 0 -31 6 -45 13 -81 41 -106
50 -164 57 -87 10 -198 41 -198 54 0 6 33 22 73 35 65 22 282 127 349 169 164
104 218 132 257 132 118 0 307 64 376 127 20 18 40 33 44 33 4 0 23 21 41 48
19 26 42 52 51 59 32 24 31 281 -2 307 -8 6 -31 34 -53 62 -21 29 -65 71 -98
94 -68 48 -217 100 -287 100 -53 0 -125 25 -200 69 -29 17 -58 31 -65 31 -7 0
-21 9 -31 20 -10 11 -28 20 -39 20 -12 0 -55 14 -96 31 -145 60 -288 72 -845
74 -1463 6 -2588 17 -2618 27 -30 11 -455 17 -584 10z m762 -67 c105 -3 782
-7 1505 -10 723 -3 1325 -8 1337 -11 13 -2 30 -16 39 -29 14 -22 15 -29 3 -58
-12 -26 -14 -189 -14 -907 0 -481 3 -1068 6 -1303 6 -408 5 -429 -13 -452
l-19 -24 -1037 6 c-570 3 -1260 7 -1532 9 -272 2 -599 4 -726 3 -143 0 -246 3
-272 10 l-42 12 -1 1137 c0 625 -1 1236 -2 1356 -2 248 -1 252 69 266 37 8
282 6 699 -5z m3090 -50 c22 -8 54 -15 70 -15 17 0 47 -9 67 -20 21 -11 57
-23 80 -26 24 -4 50 -12 58 -19 8 -7 26 -16 40 -20 14 -4 40 -18 58 -30 37
-25 34 -30 -38 -60 -25 -10 -64 -27 -87 -37 -23 -10 -46 -18 -51 -18 -5 0 -17
-9 -27 -20 -10 -11 -23 -20 -29 -20 -18 -1 -116 -116 -116 -136 0 -4 -10 -18
-22 -31 -30 -32 -39 -160 -14 -198 9 -13 16 -29 16 -35 0 -6 16 -36 35 -66 19
-30 35 -59 35 -64 0 -5 9 -14 20 -20 11 -6 32 -22 47 -36 29 -28 121 -74 146
-74 8 0 20 -6 26 -14 7 -8 26 -18 42 -21 40 -9 36 -25 -17 -60 -63 -41 -46
-32 -219 -119 -22 -11 -46 -26 -53 -33 -7 -7 -20 -13 -28 -13 -8 0 -44 -14
-81 -31 -100 -48 -97 -56 -106 227 -4 131 -10 356 -12 499 -2 143 -5 292 -6
330 -2 40 3 80 9 92 7 12 12 33 12 47 0 51 65 69 145 41z m672 -228 c12 -10
36 -17 61 -17 22 0 44 -5 47 -10 4 -6 25 -20 48 -31 62 -32 153 -128 161 -172
4 -19 13 -40 21 -47 21 -17 19 -104 -3 -161 -24 -62 -115 -164 -184 -204 -90
-53 -183 -74 -313 -71 -78 2 -119 8 -140 20 -16 9 -40 16 -52 16 -12 0 -25 5
-28 10 -4 6 -22 17 -42 25 -19 8 -64 45 -99 81 -54 57 -65 74 -75 123 -21 97
-9 201 27 244 13 16 24 34 24 41 0 31 167 136 215 136 13 0 42 9 66 20 37 17
60 20 146 18 79 -3 106 -7 120 -21z m-697 -1196 c25 -5 81 -19 125 -31 44 -12
100 -26 125 -32 56 -13 183 -85 177 -101 -2 -7 -17 -16 -33 -21 -117 -35 -294
-139 -294 -172 0 -6 -9 -22 -19 -36 -11 -13 -24 -42 -30 -63 -6 -22 -20 -48
-31 -57 -28 -24 -26 -83 5 -143 13 -27 27 -62 30 -77 4 -16 15 -33 26 -38 10
-6 19 -17 19 -26 0 -17 67 -84 84 -84 7 0 21 -9 32 -21 24 -27 45 -38 124 -65
36 -12 66 -28 68 -36 2 -8 -32 -32 -90 -62 -51 -27 -106 -59 -123 -71 -16 -12
-57 -34 -90 -49 -33 -15 -73 -34 -88 -42 -66 -33 -157 -25 -143 12 5 14 6 399
3 958 -2 187 1 242 11 253 15 15 46 16 112 4z m729 -238 c36 -9 73 -21 81 -28
8 -7 36 -22 61 -34 100 -47 179 -179 179 -297 0 -43 -6 -66 -20 -84 -11 -14
-20 -35 -20 -47 0 -13 -11 -30 -25 -39 -13 -9 -27 -25 -31 -36 -3 -11 -22 -27
-42 -35 -21 -8 -55 -28 -78 -43 -126 -84 -395 -96 -490 -21 -15 11 -34 21 -44
21 -21 0 -150 98 -150 113 0 6 -12 28 -27 49 -25 37 -26 45 -25 144 1 96 4
109 29 152 30 50 100 122 118 122 6 0 29 9 50 21 47 24 146 56 195 62 55 8
166 -2 239 -20z"/>
<path d="M4141 9341 c-6 -11 -11 -27 -11 -36 0 -9 -8 -30 -17 -45 -15 -27 -15
-30 0 -54 9 -14 17 -32 17 -41 0 -19 -34 -20 -64 0 -21 14 -24 13 -46 -10
l-23 -25 23 -25 c16 -17 34 -25 56 -25 17 0 38 -7 45 -16 12 -15 9 -21 -24
-50 -37 -31 -38 -33 -18 -43 27 -15 88 -14 97 1 4 6 9 54 10 106 2 80 6 100
25 125 l22 30 -21 18 c-14 10 -22 29 -22 47 0 16 -9 37 -19 46 -19 17 -20 17
-30 -3z"/>
<path d="M3831 9308 c-5 -18 -9 -68 -7 -111 2 -84 5 -79 -57 -89 -29 -5 -20
-22 15 -31 66 -17 59 -44 -16 -69 -86 -28 -39 -56 52 -31 31 9 79 19 106 22
63 8 71 27 16 38 -52 10 -52 26 0 36 31 6 40 13 38 25 -2 9 -12 18 -23 20 -30
6 -38 18 -26 41 9 17 21 21 57 21 41 0 45 2 42 23 -3 20 -7 22 -55 19 -70 -5
-84 5 -49 33 l28 22 -30 11 c-17 6 -35 20 -42 31 -16 31 -37 26 -49 -11z"/>
<path d="M4996 9328 c-12 -7 -16 -17 -12 -33 4 -15 -1 -28 -14 -40 -22 -20
-26 -55 -8 -73 9 -9 8 -16 -4 -29 -18 -20 -39 -89 -30 -97 3 -3 13 -6 23 -6
19 0 27 -19 31 -80 3 -34 4 -35 51 -38 35 -2 49 1 53 12 3 9 12 16 20 16 18 0
62 48 78 86 9 20 13 63 11 118 -2 67 1 89 11 92 49 15 49 15 34 24 -28 18 -88
12 -100 -10 -8 -14 -21 -20 -46 -20 -35 0 -38 3 -48 51 -7 31 -25 41 -50 27z"/>
<path d="M5287 9287 c-15 -10 -16 -17 -8 -40 6 -16 11 -87 11 -158 0 -127 0
-130 24 -140 29 -14 89 -4 110 17 25 24 5 60 -31 56 -17 -2 -35 3 -41 11 -7 8
-13 64 -14 138 -3 131 -10 147 -51 116z"/>
<path d="M4384 9277 c-7 -20 1 -285 9 -294 4 -4 22 1 40 10 23 13 56 18 108
18 41 0 83 3 93 6 19 5 19 6 2 18 -12 9 -35 12 -69 8 -42 -4 -59 -1 -89 17
-36 21 -38 24 -38 75 0 80 9 111 37 126 l25 14 -23 6 c-42 12 -89 10 -95 -4z"/>
<path d="M4605 9280 l-80 -6 67 -2 c82 -2 113 -15 129 -55 18 -42 -2 -131 -37
-168 l-27 -28 24 -9 c13 -5 38 -13 56 -16 43 -10 48 5 52 141 2 102 1 113 -18
132 -22 22 -24 22 -166 11z"/>
<path d="M218 10533 c0 -10 -3 -40 -5 -68 -7 -82 -10 -2905 -3 -3085 3 -91 3
-172 -2 -181 -8 -19 0 -110 13 -130 4 -7 11 -10 16 -6 4 5 9 167 11 360 2 194
7 368 12 386 7 26 6 39 -4 50 -9 12 -11 35 -7 83 4 37 3 79 -1 94 -4 15 -4 34
1 43 4 9 7 45 5 81 -4 92 -4 85 1 195 2 55 4 192 4 305 -1 113 -1 219 -1 235
0 38 0 787 0 840 0 22 1 60 2 85 4 126 3 183 -5 285 -4 52 -1 107 7 157 13 70
13 80 -4 110 -26 49 -23 86 7 98 47 18 24 80 -29 80 -9 0 -17 -8 -18 -17z"/>
<path d="M18711 10379 c-8 -26 -11 -549 -11 -2010 0 -1957 0 -2452 2 -2518 1
-22 -5 -38 -17 -47 -16 -12 -17 -15 -2 -46 12 -25 15 -60 14 -131 -1 -66 3
-101 11 -109 27 -27 33 14 26 172 -4 85 -10 176 -14 201 -4 32 -2 60 9 90 13
38 15 136 16 699 1 680 11 1252 22 1330 4 25 5 50 3 55 -4 15 -9 140 -9 240 0
50 1 108 1 130 0 22 -1 54 -3 70 -1 17 -2 66 -1 110 0 44 -1 454 -3 911 -2
708 -5 835 -18 859 l-14 28 -12 -34z"/>
<path d="M11940 10349 c-54 -8 -2838 -28 -2960 -21 -51 3 -283 -7 -298 -13
-12 -4 -13 -169 -8 -988 8 -1215 9 -1266 36 -1289 34 -28 177 -31 1160 -23
520 4 1304 7 1744 8 710 1 800 2 817 16 18 15 19 40 24 416 3 220 5 420 5 445
-1 25 -3 245 -5 490 -3 359 -1 451 10 478 12 27 12 38 0 73 -11 30 -15 88 -15
209 0 150 -2 169 -19 184 -16 14 -48 17 -227 20 -115 2 -234 -1 -264 -5z m416
-65 c31 -8 49 -52 31 -73 -14 -16 -15 -140 -1 -383 3 -67 1 -113 -9 -145 -10
-37 -11 -76 -5 -168 5 -66 8 -208 8 -315 0 -107 2 -399 5 -649 5 -366 3 -456
-7 -462 -7 -5 -308 -9 -668 -9 -544 -1 -662 -3 -695 -15 -52 -19 -95 -19 -131
0 -39 20 -199 20 -282 -1 -37 -9 -77 -13 -95 -9 -18 3 -45 6 -62 6 -16 0 -398
-1 -849 -1 -771 0 -819 1 -832 17 -11 15 -13 211 -14 1100 0 970 2 1083 16
1097 14 14 190 16 1792 16 977 0 1787 -3 1798 -6z"/>
<path d="M11263 9653 c-28 -5 -29 -14 -3 -36 52 -45 4 -79 -99 -70 -79 7 -94
24 -57 62 30 32 22 47 -17 32 -16 -6 -27 -20 -30 -38 -9 -45 -7 -132 2 -138 5
-3 27 5 50 17 37 19 44 20 80 8 22 -7 47 -10 55 -7 9 4 27 2 40 -3 35 -13 47
7 53 83 4 51 2 66 -11 80 -18 17 -22 18 -63 10z"/>
<path d="M9989 9628 c-18 -33 -21 -254 -3 -269 8 -6 11 -21 8 -39 -7 -32 8
-47 26 -26 8 11 8 20 1 34 -9 18 -6 22 29 36 22 9 53 16 68 17 20 1 15 4 -18
11 -46 10 -70 24 -70 40 0 5 20 28 45 52 25 25 45 49 45 55 0 6 9 11 19 11 11
0 26 6 33 13 7 8 24 19 36 26 29 15 19 31 -19 31 -21 0 -46 -13 -79 -41 -60
-51 -78 -47 -82 17 -3 53 -20 67 -39 32z"/>
<path d="M10620 9631 c0 -25 -37 -51 -72 -51 -15 0 -30 -4 -33 -10 -4 -6 7
-10 27 -10 42 0 82 -20 86 -43 5 -27 -18 -49 -44 -43 -40 10 -54 -2 -54 -50 0
-38 -4 -46 -25 -56 -31 -14 -32 -32 -3 -52 49 -35 78 -13 80 60 1 47 12 74 28
74 17 0 70 -53 70 -69 0 -10 -9 -26 -20 -36 -19 -17 -27 -45 -13 -45 4 0 21 5
38 11 28 10 36 8 74 -15 53 -34 92 -32 105 5 5 15 6 35 2 44 -6 16 -8 17 -24
1 -26 -23 -47 -20 -67 10 -15 23 -15 28 -1 58 9 18 22 39 31 46 8 7 15 18 15
26 0 36 -64 28 -74 -10 -7 -28 -33 -41 -52 -25 -17 14 -18 81 -2 97 7 7 27 9
54 5 72 -10 127 15 72 33 -13 4 -29 15 -36 25 -13 19 -42 26 -42 11 0 -5 -6
-17 -14 -27 -12 -16 -16 -17 -30 -6 -9 7 -16 24 -16 37 0 20 -5 24 -30 24 -23
0 -30 -5 -30 -19z"/>
<path d="M10083 9063 c-10 -16 -28 -36 -40 -46 -12 -10 -23 -31 -25 -50 -3
-30 -6 -32 -57 -40 -42 -7 -56 -6 -68 6 -14 13 -12 17 11 32 43 29 29 105 -19
105 -25 0 -35 -23 -15 -35 14 -9 2 -31 -26 -43 -22 -11 -24 -17 -24 -89 0 -50
-6 -88 -15 -107 -13 -25 -21 -96 -11 -96 2 0 16 6 31 14 33 17 78 7 104 -25
14 -17 23 -20 48 -15 18 4 37 14 44 22 6 8 17 14 25 14 7 0 18 9 24 20 15 29
70 26 128 -7 48 -27 82 -27 82 0 0 8 -22 25 -50 38 -41 20 -50 28 -50 50 0 17
9 32 25 43 17 11 25 26 25 45 0 16 9 40 21 55 24 31 18 46 -21 46 -52 0 -60
-8 -54 -54 8 -59 -13 -77 -56 -46 -35 25 -39 53 -8 67 30 13 35 98 7 113 -15
8 -22 5 -36 -17z"/>
<path d="M10589 9073 c-195 -4 -206 -7 -194 -62 l6 -29 48 24 c47 25 48 25 84
8 36 -17 38 -17 51 1 8 11 19 16 30 12 19 -8 12 -27 -9 -27 -8 0 -17 -12 -21
-27 -10 -49 -13 -52 -41 -58 -79 -16 -78 -14 -76 -85 2 -53 -2 -69 -19 -87
-27 -29 -16 -43 35 -43 32 1 51 8 76 30 l34 29 -27 10 c-32 13 -41 33 -26 60
9 18 20 21 73 21 35 0 68 -5 74 -11 10 -10 6 -59 -6 -59 -4 0 -16 -6 -26 -14
-18 -13 -18 -15 10 -39 33 -28 80 -39 121 -28 39 10 40 26 4 41 -26 11 -30 17
-26 36 4 13 0 29 -9 38 -8 8 -15 30 -15 48 0 50 -12 62 -53 54 -30 -6 -38 -3
-47 14 -21 40 -9 60 50 80 75 26 78 26 90 -20 8 -29 16 -40 30 -40 21 0 23 9
20 70 -1 37 -23 62 -49 58 -9 -1 -95 -4 -192 -5z"/>
<path d="M10957 9053 c-3 -5 -4 -82 -3 -173 l1 -165 28 -9 c33 -12 44 -3 53
41 6 28 3 33 -18 38 -24 6 -25 9 -26 98 0 85 2 95 28 134 l29 43 -44 0 c-24 0
-46 -3 -48 -7z"/>
<path d="M11251 8981 c-12 -12 -21 -25 -21 -30 0 -15 -46 -21 -79 -10 -17 6
-36 8 -43 6 -8 -4 -4 -8 10 -12 29 -10 30 -57 1 -84 -29 -27 -17 -42 23 -30
17 5 36 13 42 19 12 12 46 13 46 2 0 -13 82 -63 98 -60 31 6 22 29 -28 77
l-51 49 40 28 c23 16 40 36 38 44 -4 24 -53 24 -76 1z"/>
<path d="M1214 7890 c-11 -54 -14 -55 -324 -60 -327 -6 -326 -6 -315 -75 3
-22 5 -155 4 -295 -1 -140 -1 -285 0 -323 1 -37 -3 -83 -9 -103 -10 -30 -9
-42 5 -75 15 -33 16 -41 4 -55 -11 -14 -14 -88 -15 -393 -1 -207 -7 -434 -13
-506 -6 -71 -9 -164 -6 -205 3 -41 5 -82 5 -90 -1 -8 -2 -40 -3 -72 -1 -31 -5
-60 -9 -64 -4 -4 -3 -13 4 -21 8 -10 8 -24 1 -51 -5 -20 -8 -59 -5 -87 11
-124 19 -1216 8 -1233 -3 -6 -2 -21 3 -34 15 -40 13 -631 -3 -779 -9 -80 -13
-208 -12 -319 2 -130 -1 -201 -11 -238 -10 -42 -13 -219 -13 -877 0 -453 4
-826 9 -829 4 -3 865 -6 1912 -7 1047 -2 1908 -5 1914 -8 5 -3 545 -6 1200 -6
654 -1 1235 -4 1289 -8 77 -4 104 -2 119 8 17 12 24 12 46 0 14 -8 43 -17 64
-20 26 -4 40 -13 46 -28 5 -12 27 -42 50 -67 23 -25 44 -52 46 -62 3 -9 19
-21 35 -27 17 -5 30 -16 30 -24 0 -7 20 -34 45 -59 25 -25 45 -49 45 -53 0 -4
28 -33 62 -64 115 -105 138 -129 138 -145 0 -23 37 -20 50 4 13 25 14 24 -61
96 -89 86 -96 92 -187 190 -135 145 -139 150 -153 175 -7 13 -19 30 -28 37
-14 11 -14 14 8 32 22 19 38 20 400 20 207 0 386 3 398 6 12 3 24 12 27 20 3
8 6 544 6 1191 1 809 4 1181 11 1190 8 9 8 48 1 130 -6 65 -9 134 -6 153 13
101 15 233 4 260 -8 20 -9 34 -1 48 11 20 11 50 11 789 0 471 0 483 -20 503
-15 15 -33 20 -72 20 -29 0 -59 -4 -65 -8 -17 -11 -18 -47 -10 -677 11 -885
10 -1263 -2 -1350 -8 -56 -11 -392 -9 -1108 3 -905 1 -1029 -12 -1037 -11 -7
-3347 -19 -3500 -13 -14 1 -288 2 -608 2 -371 1 -617 5 -675 12 -120 15 -503
16 -1192 4 -308 -5 -693 -10 -856 -10 -275 0 -298 1 -317 18 -21 19 -21 24
-16 780 2 419 7 897 9 1062 3 165 5 311 5 325 -2 244 3 620 7 635 3 11 5 40 5
65 -9 268 -10 575 -2 595 6 15 5 47 -2 86 -8 48 -8 71 1 96 8 22 9 38 3 46 -6
7 -8 126 -5 302 2 160 3 297 3 305 -1 8 -3 136 -6 283 -3 227 -1 273 12 298 8
17 15 51 15 77 0 26 0 66 0 90 1 62 1 69 -3 162 -2 70 -2 327 1 507 1 23 5 53
11 67 5 15 10 160 10 333 1 199 5 312 12 320 8 10 62 13 213 13 112 0 210 -3
219 -6 10 -4 16 -18 16 -35 0 -31 5 -33 84 -29 26 1 55 13 87 36 27 19 53 34
58 34 5 0 23 16 41 36 43 49 40 94 -7 106 -18 5 -52 21 -75 37 -44 29 -128 61
-160 61 -13 0 -20 -10 -24 -30z"/>
<path d="M8490 7883 c-39 -28 -60 -40 -128 -73 -63 -31 -102 -61 -102 -80 0
-23 116 -120 142 -120 8 0 31 -9 53 -20 60 -31 99 -27 126 13 13 17 29 37 36
42 14 10 3444 11 4068 1 171 -3 1127 -6 2125 -7 1692 -1 2888 -11 3057 -25 41
-3 77 -11 83 -19 11 -13 13 -553 3 -670 -2 -27 -6 -795 -8 -1705 -3 -1248 -7
-1692 -17 -1805 -9 -101 -13 -328 -13 -700 1 -647 1 -650 5 -1050 1 -170 2
-321 0 -335 -4 -50 -3 -86 4 -116 7 -28 4 -32 -34 -58 -49 -32 -41 -32 -195
-12 -93 11 -279 16 -815 19 -803 5 -840 4 -875 -29 -27 -25 -33 -68 -12 -81
10 -7 396 -14 637 -12 157 2 239 2 365 1 44 -1 116 -1 160 0 330 2 696 0 780
-7 158 -11 139 -175 143 1216 4 1677 16 3767 24 4265 5 357 9 426 22 452 13
26 15 53 10 154 -3 68 -5 128 -4 133 1 6 3 114 5 242 3 201 1 234 -13 245 -11
9 -64 14 -191 15 -97 1 -396 7 -666 13 -651 14 -1179 16 -2712 7 -929 -5
-1310 -4 -1380 4 -68 8 -420 11 -1148 9 -577 -1 -1086 -2 -1130 -2 -228 1
-976 1 -1566 0 -486 0 -672 3 -687 11 -13 7 -22 21 -22 34 0 36 -22 58 -65 64
-29 3 -47 0 -65 -14z"/>
<path d="M11660 7469 c-36 -4 -461 -7 -946 -8 -720 -1 -884 -3 -899 -14 -15
-12 -17 -22 -12 -63 17 -131 17 -143 -10 -164 -14 -11 -37 -20 -50 -20 -14 0
-52 -16 -85 -35 -33 -20 -88 -47 -122 -61 -33 -15 -80 -39 -103 -54 -22 -15
-52 -31 -65 -35 -12 -4 -40 -21 -61 -38 -97 -76 -102 -78 -297 -117 -122 -24
-147 -31 -197 -56 -29 -14 -83 -56 -120 -93 -58 -56 -72 -78 -96 -141 -35 -95
-34 -132 4 -230 27 -71 72 -130 98 -130 4 0 13 -11 19 -24 6 -13 47 -46 94
-74 66 -39 96 -51 143 -56 113 -12 198 -37 244 -73 24 -18 52 -33 62 -33 10 0
20 -4 24 -9 3 -5 42 -24 88 -41 45 -17 90 -35 101 -41 10 -6 44 -13 75 -16 31
-2 72 -11 91 -19 19 -8 55 -18 80 -22 l45 -7 9 -134 c8 -125 8 -135 -9 -148
-19 -13 -67 -14 -702 -17 -160 -1 -215 -4 -225 -14 -10 -10 -14 -155 -16 -719
-1 -463 -6 -711 -13 -719 -7 -9 -58 -11 -209 -7 -142 4 -203 3 -213 -5 -17
-15 -27 -663 -28 -1821 0 -710 2 -796 16 -810 13 -14 49 -16 238 -16 268 0
284 4 271 68 -4 23 -8 62 -8 87 1 25 2 182 4 350 1 168 2 325 1 350 0 25 -1
74 -1 110 0 256 -1 396 -2 465 -4 137 0 698 5 735 2 19 5 40 6 46 0 6 13 17
29 25 22 11 169 14 852 16 454 2 840 5 857 8 18 3 37 14 43 25 6 11 10 99 10
206 0 160 -2 190 -16 206 -13 14 -14 21 -5 32 10 11 9 19 -1 36 -11 18 -11 22
5 31 21 12 22 32 2 49 -8 7 -15 29 -15 50 0 21 7 43 15 50 19 15 19 29 1 49
-11 13 -12 38 -5 126 5 65 4 134 -1 169 -8 47 -6 66 5 89 19 39 19 67 -1 96
-13 18 -16 41 -14 95 4 79 9 254 10 301 0 17 -3 66 -8 110 -5 44 -7 85 -5 91
2 6 21 19 41 29 34 16 81 18 546 21 296 3 514 8 521 14 11 9 11 110 -1 408 -4
85 -2 144 5 160 7 17 11 151 12 362 1 184 6 378 11 430 12 126 10 561 -3 576
-14 17 -45 20 -119 13z m53 -63 c11 -12 14 -58 14 -239 0 -124 3 -230 7 -236
4 -6 -1 -23 -12 -39 -10 -15 -22 -35 -25 -45 -4 -10 -7 -293 -7 -630 -1 -337
-3 -622 -7 -635 -3 -12 -15 -24 -27 -27 -49 -10 -1746 -14 -1775 -4 -36 13
-40 31 -46 214 -7 215 -5 289 9 300 7 6 16 26 20 45 11 55 6 273 -7 289 -17
20 -19 222 -3 241 21 24 29 132 12 155 -10 14 -11 23 -2 37 8 14 8 22 -2 36
-24 33 -24 43 -2 67 18 19 20 27 10 44 -6 12 -7 27 -3 34 4 6 8 95 8 196 1
168 3 184 20 197 29 21 1797 21 1818 0z m-1914 -289 c6 -8 8 -17 5 -20 -4 -3
-8 -30 -10 -59 -2 -29 -5 -87 -7 -128 -3 -41 -6 -288 -8 -548 -4 -510 -2 -495
-57 -494 -70 1 -169 16 -188 27 -12 8 -39 17 -60 21 -21 4 -48 13 -59 19 -11
7 -36 18 -56 24 -20 6 -51 25 -69 41 -18 16 -37 31 -43 33 -21 7 5 27 36 27
18 1 50 9 72 20 22 11 43 19 47 20 4 0 29 14 55 32 88 58 161 147 170 206 3
20 12 49 19 64 18 35 18 59 -1 117 -8 25 -17 62 -20 81 -10 64 -180 219 -256
234 -31 5 -90 50 -78 59 69 47 255 157 268 157 3 0 18 8 31 18 73 51 185 78
209 49z m-539 -313 c220 -42 346 -207 310 -406 -16 -85 -32 -113 -109 -186
-101 -97 -125 -105 -321 -110 -160 -3 -167 -3 -221 22 -31 15 -68 37 -83 51
-14 13 -47 36 -71 51 -25 14 -45 32 -45 39 0 7 -9 24 -20 38 -39 50 -50 108
-36 202 7 47 20 93 29 102 8 10 19 30 22 46 7 28 52 67 78 67 8 0 20 7 27 14
6 8 28 20 48 27 20 6 42 15 47 20 6 4 30 11 54 15 23 4 59 13 79 20 40 14 91
11 212 -12z m1316 -1375 c3 -6 8 -393 9 -860 3 -947 8 -874 -69 -875 -23 0
-149 -4 -281 -8 -217 -8 -244 -7 -273 8 -18 9 -37 28 -42 42 -7 18 -14 676
-10 914 2 136 -1 356 -6 398 -10 79 -23 84 -242 81 -117 -1 -188 -7 -210 -15
l-32 -13 -1 -328 c0 -180 0 -402 0 -493 0 -203 -2 -214 -42 -238 -29 -16 -53
-18 -240 -16 -175 2 -212 5 -234 19 l-25 17 6 371 c4 205 7 392 6 417 0 25 -2
157 -3 293 -3 291 -8 277 106 287 132 13 1575 11 1583 -1z m-746 -757 l5 -394
23 -19 24 -19 -26 -31 -26 -31 0 -231 0 -232 -31 -17 c-28 -16 -71 -18 -494
-18 -359 0 -465 -3 -473 -13 -17 -21 -23 -269 -27 -1232 -2 -506 -7 -935 -10
-953 -10 -55 -30 -60 -210 -53 l-160 6 -2 50 c-2 28 -3 60 -3 73 0 12 -1 32
-1 45 -1 12 -3 436 -5 942 -3 659 0 930 8 954 7 22 10 111 9 241 -3 269 -16
251 185 257 118 3 158 1 193 -11 35 -13 95 -16 321 -16 l278 0 31 39 31 38 0
498 c0 360 3 502 11 512 9 11 46 13 178 11 l166 -3 5 -393z"/>
<path d="M10232 6629 c-17 -18 -32 -20 -126 -21 -76 0 -106 -3 -103 -12 2 -6
31 -14 64 -17 78 -7 84 -12 70 -50 l-12 -31 -87 5 c-68 3 -88 2 -88 -8 0 -8
22 -21 48 -29 38 -13 55 -14 81 -5 27 9 35 9 49 -5 9 -9 26 -23 37 -31 19 -14
19 -15 -14 -42 -19 -16 -42 -33 -50 -40 -14 -10 -12 -13 11 -22 14 -5 30 -20
33 -33 4 -13 13 -26 19 -30 21 -14 55 -8 66 12 15 28 79 27 129 -2 24 -14 44
-19 57 -14 17 7 16 10 -14 34 -37 31 -41 58 -11 96 19 24 19 27 5 42 -17 17
-10 40 18 64 24 19 19 39 -11 51 l-28 10 28 21 c34 24 27 38 -20 38 -20 0 -46
9 -60 20 -33 26 -67 25 -91 -1z"/>
<path d="M10593 6638 c-6 -7 -11 -28 -11 -47 0 -18 -8 -41 -17 -51 -11 -12
-14 -26 -10 -39 4 -12 0 -30 -9 -43 -23 -32 -20 -57 8 -68 28 -10 39 -38 31
-73 -9 -36 3 -67 26 -67 24 0 39 36 39 95 0 36 5 48 25 61 13 8 32 14 42 12
15 -3 18 -12 15 -65 -5 -84 3 -105 36 -101 24 3 27 7 28 46 0 51 8 60 54 64
48 4 40 22 -12 26 -87 6 -72 42 18 42 76 0 85 -11 74 -95 -5 -38 -6 -73 -4
-77 3 -4 16 -8 29 -8 19 0 26 7 31 28 3 15 10 38 15 51 7 18 5 30 -7 49 -16
25 -16 26 9 46 23 19 26 29 27 91 2 105 5 98 -39 91 -33 -5 -41 -3 -54 18 -14
21 -23 23 -76 22 -51 -2 -63 -6 -85 -29 -52 -56 -126 -61 -126 -8 0 37 -36 55
-57 29z"/>
<path d="M11204 6642 c-6 -4 -14 -24 -17 -46 -3 -21 -14 -47 -23 -57 -9 -10
-14 -25 -11 -33 7 -18 -22 -97 -42 -112 -8 -6 -11 -18 -8 -27 5 -14 10 -15 32
-5 21 9 29 9 42 -5 14 -14 15 -22 5 -53 -6 -21 -9 -41 -6 -46 7 -11 102 -10
109 2 3 6 -5 14 -18 19 -27 11 -35 36 -29 98 4 45 14 54 55 46 34 -7 47 -46
23 -72 -18 -20 -22 -61 -5 -61 7 0 27 16 45 36 29 31 34 42 34 87 1 29 2 81 3
116 2 51 -1 66 -15 75 -14 8 -23 5 -46 -18 -42 -39 -86 -34 -90 11 -3 34 -22
56 -38 45z"/>
<path d="M11474 6596 c-3 -8 -2 -21 2 -28 5 -7 9 -75 10 -151 2 -90 6 -143 14
-152 8 -10 31 -15 66 -15 44 0 55 4 64 21 7 11 9 32 5 46 -4 19 -10 24 -25 19
-11 -3 -29 -9 -40 -12 -26 -8 -31 16 -33 162 l-2 119 -28 3 c-17 2 -29 -2 -33
-12z"/>
<path d="M10442 4946 c-36 -32 -78 -33 -129 -6 -61 32 -104 20 -68 -20 9 -10
12 -20 8 -23 -5 -3 -50 -5 -99 -4 -66 1 -96 -2 -108 -12 -23 -19 -4 -31 47
-31 70 0 97 -32 61 -71 -26 -28 -11 -49 35 -49 47 0 54 -8 37 -41 -10 -20 -19
-24 -51 -23 -22 1 -52 5 -66 9 -20 5 -28 3 -33 -10 -10 -27 12 -45 54 -45 21
0 53 -6 71 -14 52 -21 239 -25 269 -6 13 8 13 13 2 31 -7 11 -12 22 -10 24 2
1 13 8 26 14 19 10 20 15 11 32 -6 12 -24 28 -40 37 -22 13 -29 23 -27 42 3
21 9 25 41 28 40 3 45 15 22 46 -22 29 -18 55 10 68 32 15 28 42 -6 46 -17 2
-37 -6 -57 -22z"/>
<path d="M10288 4394 c-12 -12 -41 -17 -122 -19 -104 -4 -126 -8 -126 -24 0
-7 57 -12 280 -22 8 0 53 2 100 5 47 3 89 5 93 6 5 0 7 12 5 28 -2 18 -8 26
-18 23 -45 -14 -120 -12 -142 3 -29 20 -49 20 -70 0z"/>
<path d="M8534 3852 c-7 -5 -13 -117 -17 -345 -6 -294 -5 -339 8 -344 22 -8
45 16 45 47 0 15 9 39 20 53 25 31 25 53 1 92 -16 27 -18 55 -19 233 -1 175 1
204 16 218 14 15 39 16 237 10 191 -7 223 -6 234 8 25 30 -19 36 -271 36 -134
0 -248 -4 -254 -8z"/>
<path d="M6701 7121 c-44 -8 -52 -33 -50 -156 0 -49 0 -259 -1 -465 -2 -304
-5 -380 -17 -403 -19 -38 -15 -439 5 -459 10 -10 173 -13 827 -13 719 0 816 2
830 15 13 14 16 100 21 670 6 551 9 658 21 672 23 26 8 127 -21 138 -25 9
-1561 10 -1615 1z m1200 -39 c304 -1 337 -3 350 -18 12 -14 13 -92 10 -483 -2
-256 -7 -474 -12 -483 -5 -9 -10 -100 -10 -202 -1 -153 -4 -188 -17 -198 -12
-10 -108 -13 -416 -14 -221 -1 -545 -3 -721 -4 -211 -1 -329 2 -348 9 l-28 11
5 197 c8 381 9 579 4 663 -2 47 0 98 5 114 7 20 6 39 -2 63 -10 27 -10 44 0
83 10 40 10 60 0 98 -10 41 -9 53 4 78 8 16 15 34 15 40 0 6 8 18 18 27 15 14
51 17 243 19 123 2 301 3 394 2 94 -1 321 -2 506 -2z"/>
<path d="M7016 6598 c-3 -7 -7 -74 -9 -148 -3 -81 -10 -146 -18 -163 -15 -34
-3 -47 47 -47 27 0 76 24 64 32 -3 2 -14 8 -25 14 -15 9 -19 20 -17 45 4 52
19 62 53 37 21 -16 43 -22 79 -21 l50 1 0 -34 c0 -18 -4 -36 -10 -39 -15 -9
-12 -55 4 -55 7 0 32 18 54 41 41 40 42 40 78 27 20 -7 39 -19 41 -25 7 -18
63 -17 63 0 0 19 -30 45 -69 58 l-32 11 22 24 c31 33 33 114 3 144 -39 39 -70
-4 -58 -81 l6 -34 -67 1 c-79 2 -102 16 -66 43 l24 19 -24 12 c-13 7 -31 22
-41 33 -14 19 -20 20 -52 10 -41 -13 -60 1 -54 39 2 19 12 24 51 32 33 6 57 5
74 -3 24 -11 24 -13 10 -35 -19 -28 -13 -36 24 -36 28 0 32 3 67 49 15 19 31
25 83 30 35 3 64 11 64 16 0 16 -414 19 -419 3z"/>
<path d="M7961 6587 c-7 -17 -6 -36 2 -57 10 -26 9 -36 -5 -60 -10 -17 -13
-32 -7 -35 17 -11 9 -43 -17 -74 l-26 -31 26 -11 c27 -12 34 -33 16 -44 -15
-9 -2 -25 21 -25 14 0 19 7 19 26 0 18 13 39 37 62 35 33 36 36 19 46 -52 30
-59 45 -52 110 13 105 12 110 -6 114 -12 2 -21 -5 -27 -21z"/>
<path d="M7661 6572 c-14 -16 -27 -21 -44 -17 -16 4 -30 1 -41 -10 -21 -21
-21 -25 9 -76 30 -53 31 -80 5 -104 -28 -26 -25 -45 8 -46 15 0 36 -4 47 -9
18 -7 19 -8 3 -15 -37 -15 -13 -54 35 -55 11 0 8 48 -3 55 -24 15 6 25 69 24
38 -1 77 3 87 9 16 9 14 12 -24 27 -53 22 -60 35 -57 110 2 58 1 61 -35 95
l-38 35 -21 -23z"/>
<path d="M13565 7121 l-50 -6 -5 -65 c-3 -36 -9 -71 -13 -78 -12 -17 -95 -58
-136 -66 -19 -3 -42 -12 -50 -20 -9 -8 -45 -26 -80 -41 -36 -15 -79 -38 -97
-52 -18 -13 -63 -40 -99 -58 -36 -19 -80 -46 -96 -60 -17 -14 -41 -25 -53 -25
-12 0 -31 -7 -42 -15 -10 -8 -41 -15 -69 -15 -27 0 -75 -9 -105 -20 -30 -11
-63 -19 -73 -20 -46 0 -247 -123 -247 -150 0 -5 -11 -19 -23 -32 -40 -39 -61
-132 -54 -245 5 -106 17 -144 57 -184 22 -23 109 -94 170 -140 11 -9 44 -20
72 -23 28 -4 60 -14 72 -22 12 -8 45 -14 82 -14 48 0 74 -6 116 -27 29 -15 55
-30 58 -34 5 -7 59 -30 170 -73 36 -13 79 -32 95 -40 17 -9 51 -16 76 -16 27
0 51 -6 58 -14 6 -7 36 -16 66 -19 32 -3 67 -14 85 -27 l30 -21 0 -108 c0 -89
3 -111 17 -122 13 -12 118 -14 582 -15 358 -1 590 3 631 9 36 6 162 12 280 12
226 2 305 9 316 27 4 7 10 38 13 70 6 55 8 60 41 77 19 10 62 28 95 40 33 12
71 28 85 36 14 8 48 26 75 41 28 14 68 41 90 59 22 17 52 35 67 38 14 4 39 18
55 31 76 64 103 76 170 76 35 0 76 6 91 14 15 7 49 16 76 20 28 3 52 10 55 15
4 5 38 21 76 36 70 27 84 39 130 105 109 155 105 147 105 238 0 74 -4 91 -33
150 -38 78 -111 152 -180 182 -25 11 -49 25 -52 30 -3 6 -16 10 -28 10 -12 0
-35 8 -52 17 -16 9 -59 19 -95 23 -68 8 -99 21 -245 100 -49 27 -101 50 -115
50 -14 0 -34 6 -45 13 -37 24 -110 47 -185 57 -80 10 -161 35 -171 52 -9 13 1
90 12 103 14 15 10 99 -5 121 -14 19 -35 19 -868 20 -469 1 -875 -1 -903 -5z
m1695 -56 c10 -12 11 -63 6 -228 l-7 -212 -29 -36 -29 -36 31 -14 31 -14 -2
-200 c-2 -110 -2 -213 -1 -229 0 -15 -4 -33 -9 -40 -5 -6 -11 -22 -13 -36 -2
-18 -11 -26 -36 -31 -36 -7 -68 -32 -77 -59 -15 -46 -65 -28 -65 22 0 22 -6
31 -20 35 -12 3 -27 20 -34 37 -12 29 -17 32 -50 28 -40 -5 -47 -23 -19 -54
22 -24 7 -52 -29 -56 -37 -5 -53 20 -33 51 17 26 10 62 -18 85 -20 17 -36 -4
-44 -55 -3 -21 -14 -49 -25 -62 -26 -34 -24 -95 4 -113 17 -11 23 -28 28 -69
l5 -54 50 1 c28 0 62 3 76 7 24 6 25 9 22 59 -6 67 11 94 51 84 36 -9 43 -32
17 -60 -34 -37 -28 -49 23 -42 26 4 47 3 50 -3 4 -6 34 -20 67 -32 l59 -22 -2
-46 c-1 -25 0 -109 1 -186 3 -110 0 -141 -10 -146 -27 -14 -196 -27 -239 -19
-25 4 -85 6 -135 4 -49 -2 -357 -7 -683 -10 -464 -4 -597 -3 -608 7 -12 10
-15 33 -12 114 3 87 0 104 -15 119 -16 17 -16 20 -3 41 13 19 16 77 21 302 3
153 5 295 5 317 -1 21 6 49 15 63 15 23 15 26 0 43 -15 16 -16 52 -13 327 2
243 6 313 17 326 8 11 11 27 7 43 -5 18 -2 32 10 45 16 18 47 19 834 19 721 0
819 -2 830 -15z m-1763 -590 c2 -303 -1 -402 -10 -410 -9 -7 -12 -70 -12 -232
0 -195 -2 -225 -17 -240 -14 -14 -23 -15 -55 -6 -21 6 -63 17 -93 23 -30 7
-75 21 -100 32 -25 11 -58 26 -75 33 -16 8 -41 17 -55 20 -67 18 -174 81 -164
97 3 4 17 8 31 8 40 0 199 74 207 97 3 7 12 13 20 13 25 0 74 49 81 80 4 16
11 32 16 36 5 3 22 24 37 47 24 38 26 50 24 122 -4 99 -29 193 -54 201 -10 3
-21 16 -24 30 -4 14 -18 31 -33 38 -14 8 -38 25 -52 38 -40 37 -91 64 -135 72
-65 12 -74 16 -74 39 1 22 47 58 92 72 13 4 30 13 38 20 8 7 40 23 70 36 30
12 67 31 82 41 14 10 31 18 37 18 5 0 14 6 18 14 12 22 139 66 178 63 20 -2
20 -10 22 -402z m1926 300 c20 -8 60 -15 89 -15 31 -1 69 -9 93 -20 22 -11 50
-19 62 -20 12 0 24 -4 28 -9 3 -5 22 -15 43 -21 43 -13 122 -52 122 -60 0 -13
-58 -48 -115 -69 -67 -25 -65 -24 -157 -115 -46 -44 -68 -73 -68 -90 0 -13
-10 -36 -22 -52 -30 -38 -39 -161 -14 -199 9 -13 16 -33 16 -44 0 -11 4 -22 9
-26 5 -3 12 -19 16 -35 4 -17 17 -37 29 -45 13 -9 28 -27 34 -40 7 -16 23 -28
41 -31 17 -4 38 -15 47 -25 9 -11 23 -19 29 -19 7 0 18 -7 25 -15 7 -8 25 -15
39 -15 15 0 36 -6 46 -14 19 -14 19 -15 1 -35 -10 -11 -28 -23 -40 -27 -11 -3
-30 -14 -41 -24 -11 -10 -40 -28 -65 -41 -25 -13 -47 -25 -50 -28 -12 -14 -69
-48 -120 -73 -122 -58 -162 -69 -175 -48 -3 5 -5 128 -4 272 1 145 3 420 3
611 l1 349 24 19 c28 23 29 23 74 4z m-2503 -225 c109 -15 183 -54 272 -142
58 -59 70 -100 65 -223 -4 -84 -7 -97 -31 -125 -14 -17 -26 -36 -26 -42 0 -22
-99 -102 -170 -136 -71 -34 -81 -36 -199 -40 -243 -8 -388 59 -456 210 -24 53
-28 75 -28 152 0 79 3 97 26 139 14 27 39 64 56 82 29 34 98 75 124 75 8 0 26
9 40 20 14 11 40 20 59 20 18 0 53 7 78 15 45 15 55 14 190 -5z m3185 0 c44
-7 94 -25 135 -47 110 -60 160 -118 205 -240 l26 -68 -21 -65 c-20 -62 -84
-150 -109 -150 -5 0 -13 -9 -16 -20 -8 -24 -86 -80 -112 -80 -10 0 -30 -8 -43
-17 -20 -15 -51 -19 -160 -21 -122 -3 -143 -1 -213 22 -70 22 -177 87 -177
107 0 4 -12 22 -27 40 -17 20 -26 41 -25 56 2 13 -2 31 -9 39 -18 22 7 274 29
282 6 2 35 25 64 53 29 27 69 53 88 59 19 6 44 17 54 25 11 8 34 15 50 15 17
1 42 7 56 15 27 16 85 15 205 -5z"/>
<path d="M13907 6652 c-6 -31 -33 -42 -104 -42 -29 0 -36 5 -45 31 -13 37 -39
35 -49 -5 -5 -16 -18 -39 -30 -52 -19 -20 -21 -32 -18 -103 5 -111 21 -123 44
-34 9 37 17 49 34 51 16 3 24 -4 32 -27 l11 -30 40 30 c23 16 51 29 63 29 17
0 25 8 30 28 3 15 13 34 20 42 7 8 15 35 17 60 3 40 0 45 -18 48 -17 2 -23 -4
-27 -26z"/>
<path d="M14375 6650 c-15 -16 -19 -40 -21 -128 -1 -60 1 -114 5 -121 5 -7 25
-11 52 -9 41 3 44 1 47 -24 4 -30 26 -53 42 -43 6 4 10 53 10 125 0 127 -9
151 -42 111 -14 -19 -17 -33 -12 -77 6 -45 4 -55 -10 -60 -10 -4 -24 0 -33 9
-13 13 -13 21 -3 52 9 27 9 40 1 48 -15 15 -13 36 9 82 11 22 19 43 20 48 0
15 -48 6 -65 -13z"/>
<path d="M14217 6572 c-12 -14 -15 -39 -12 -131 3 -62 6 -115 8 -118 8 -7 167
10 167 18 0 9 -8 11 -75 13 l-40 1 -1 100 c-1 55 -2 105 -2 111 -3 20 -29 23
-45 6z"/>
<path d="M13923 6485 c-3 -9 -3 -29 0 -44 8 -37 -12 -79 -40 -86 -27 -6 -31
-35 -5 -35 10 0 25 9 35 20 22 27 71 26 96 -1 21 -23 91 -32 98 -13 2 6 -20
25 -48 44 -50 32 -51 34 -45 72 7 41 6 42 -52 52 -24 4 -34 2 -39 -9z"/>
<path d="M14247 6078 c-42 -40 -50 -63 -37 -108 9 -32 8 -37 -16 -57 l-27 -21
22 -13 c18 -12 21 -23 21 -82 0 -84 9 -89 89 -50 74 34 83 63 21 63 -33 0 -41
4 -45 23 -4 15 2 37 15 60 16 26 19 41 12 53 -7 12 -6 26 1 42 9 20 8 27 -8
38 -18 13 -18 14 0 34 17 19 17 22 3 36 -14 14 -19 12 -51 -18z"/>
<path d="M13682 6071 c-27 -23 -32 -33 -27 -54 4 -14 2 -28 -4 -31 -18 -12
-13 -26 14 -38 33 -15 31 -51 -2 -56 -14 -2 -23 -10 -23 -22 0 -10 -7 -20 -15
-24 -20 -7 -19 -55 0 -63 9 -3 24 2 35 12 25 23 43 10 36 -26 -4 -22 -1 -29
16 -35 24 -7 48 17 48 47 0 9 7 19 15 23 15 5 45 -18 45 -35 0 -18 32 -8 60
19 21 22 28 38 28 72 1 23 7 49 15 57 24 25 41 -11 45 -96 4 -82 10 -95 35
-85 12 4 15 13 10 32 -4 18 -1 29 13 39 18 14 18 15 -4 31 -26 20 -23 42 11
79 27 30 14 43 -45 43 -37 0 -54 5 -64 18 -18 24 -17 42 3 58 26 18 11 26 -24
13 -20 -6 -33 -19 -37 -35 -6 -22 -11 -24 -54 -23 -26 1 -57 -2 -69 -6 -19 -6
-24 -2 -33 19 -11 29 -4 56 14 56 7 0 22 -11 34 -25 18 -20 26 -23 41 -16 39
22 34 53 -12 70 -44 17 -69 12 -105 -18z"/>
<path d="M14453 6085 c-12 -9 -31 -29 -43 -45 -19 -27 -20 -34 -9 -65 12 -31
11 -38 -7 -62 -31 -43 -36 -63 -17 -70 11 -4 22 1 31 15 18 27 62 30 62 4 0
-10 5 -23 12 -30 8 -8 8 -15 -1 -26 -18 -22 -7 -32 39 -40 22 -3 40 -11 40
-16 0 -16 41 -32 66 -26 38 10 29 33 -15 41 -27 4 -42 13 -49 31 -14 29 2 71
30 79 19 7 26 59 9 69 -18 11 -40 -6 -43 -32 -3 -24 -8 -27 -44 -30 l-41 -3
-6 46 c-4 26 -2 55 3 65 6 10 10 26 10 36 0 9 7 22 17 29 18 13 12 45 -9 45
-8 0 -23 -7 -35 -15z"/>
<path d="M208 7008 c-3 -7 0 -23 5 -36 8 -16 7 -48 -1 -106 -14 -97 -16 -754
-3 -775 8 -13 12 -13 26 -1 15 13 16 51 12 429 -3 229 -6 421 -6 426 0 6 0 23
2 40 1 21 -3 30 -14 33 -10 2 -19 -3 -21 -10z"/>
<path d="M2960 6881 c-112 -8 -127 -17 -135 -84 -4 -29 -6 -60 -5 -67 5 -31
-1 -39 -32 -45 -18 -4 -42 -13 -53 -19 -11 -7 -36 -15 -56 -19 -20 -3 -56 -18
-80 -33 -24 -15 -104 -59 -177 -96 -74 -38 -148 -79 -165 -92 -47 -36 -114
-59 -177 -60 -68 -2 -129 -14 -155 -31 -11 -7 -35 -16 -52 -19 -17 -4 -37 -14
-44 -22 -6 -8 -15 -14 -20 -14 -10 0 -72 -42 -94 -64 -9 -9 -20 -16 -25 -16
-5 0 -12 -10 -16 -22 -3 -12 -30 -46 -58 -76 l-51 -54 0 -98 c0 -87 2 -101 22
-122 12 -13 25 -36 29 -53 10 -39 54 -103 78 -111 10 -3 35 -21 55 -38 36 -32
98 -59 176 -76 22 -5 54 -16 70 -24 18 -9 55 -16 91 -16 41 0 66 -5 73 -14 7
-8 24 -17 39 -21 15 -3 50 -21 77 -40 28 -18 77 -41 110 -50 33 -10 80 -25
105 -36 25 -10 77 -21 115 -24 39 -3 84 -10 100 -15 17 -5 49 -14 71 -19 l41
-11 5 -110 c3 -68 9 -115 17 -123 17 -17 356 -26 961 -25 336 0 504 -4 523
-11 16 -6 97 -11 191 -11 l162 0 22 30 c24 31 28 55 12 65 -37 23 25 79 130
116 55 19 120 49 140 65 8 6 69 40 135 74 66 34 136 75 157 91 52 42 110 60
223 69 87 8 110 14 182 49 109 54 212 155 229 226 3 17 13 37 20 46 15 17 19
52 16 142 -1 42 -7 62 -22 77 -11 11 -20 32 -20 46 0 38 -55 99 -131 144 -37
22 -71 40 -76 40 -4 0 -20 6 -34 14 -14 7 -64 19 -110 26 -80 13 -151 38 -164
60 -3 5 -13 10 -21 10 -9 0 -58 20 -111 45 -52 25 -116 50 -142 57 -25 6 -57
19 -71 29 -17 12 -54 19 -120 23 -124 8 -175 28 -195 79 -14 34 -13 40 1 62
12 18 13 28 5 44 -6 11 -11 37 -11 59 0 55 -18 67 -109 69 -42 0 -175 6 -296
13 -121 6 -422 10 -670 8 -247 -2 -484 0 -525 3 -41 4 -113 4 -160 0z m254
-36 c17 -13 104 -15 585 -16 311 0 591 -5 621 -10 30 -5 90 -13 132 -17 42 -4
80 -10 83 -14 4 -4 6 -109 6 -234 -2 -191 -5 -232 -18 -255 -16 -26 -16 -29 1
-47 16 -18 17 -48 13 -382 -3 -199 -9 -365 -13 -370 -5 -5 -28 -3 -53 3 l-43
12 4 53 c5 60 -3 69 -46 52 -41 -15 -58 2 -50 50 5 33 3 40 -17 51 -56 29 -46
49 25 49 39 0 60 6 85 24 40 30 28 40 -25 21 -21 -8 -50 -14 -62 -15 -34 0
-162 -40 -162 -50 0 -5 12 -15 27 -22 33 -16 42 -47 18 -64 -14 -11 -23 -10
-46 2 -16 8 -30 20 -31 27 -5 45 -8 67 -10 102 -2 30 -8 41 -22 43 -28 6 -36
-15 -36 -102 0 -73 -2 -82 -27 -108 l-28 -29 33 -25 c28 -22 32 -31 32 -74 0
-58 10 -63 85 -48 70 14 83 29 60 65 l-18 27 -18 -23 c-11 -13 -19 -29 -19
-37 0 -8 -9 -14 -20 -14 -30 0 -43 37 -33 95 10 60 34 71 67 31 24 -31 47 -34
94 -15 28 12 34 12 42 -1 20 -31 11 -60 -22 -75 -28 -11 -30 -15 -15 -21 10
-3 30 -1 44 7 23 12 31 10 86 -18 34 -18 72 -35 84 -38 11 -3 23 -16 26 -28 9
-44 0 -328 -10 -338 -14 -14 -169 -14 -1022 -2 -775 12 -693 -5 -706 145 -9
99 -9 136 1 236 5 55 8 62 27 62 29 0 51 15 43 29 -4 6 -17 11 -30 11 -13 0
-31 9 -41 20 -18 20 -18 24 -3 83 17 70 17 142 0 159 -17 17 -15 64 4 93 13
20 13 30 3 64 -11 36 -10 43 5 60 16 17 15 19 -6 34 l-23 16 23 18 22 18 -1
347 c0 191 2 351 5 356 3 5 52 12 108 15 57 3 114 10 128 16 33 13 32 13 54
-4z m-387 -258 c10 -34 11 -58 5 -80 -11 -36 -9 -80 7 -152 19 -84 19 -205 0
-242 -14 -28 -16 -79 -17 -388 0 -390 0 -391 -56 -382 -130 21 -176 30 -209
43 -20 8 -51 14 -69 14 -18 0 -52 14 -82 34 -28 18 -64 36 -81 40 -62 15 -86
61 -37 71 15 3 41 12 57 20 17 7 45 18 63 24 19 6 49 23 67 38 18 16 45 36 60
46 14 11 30 30 35 43 5 13 14 24 19 24 6 0 26 34 46 75 44 93 47 163 12 240
-13 28 -27 62 -30 76 -16 63 -143 161 -245 188 -29 8 -46 20 -54 36 -14 31 3
46 131 111 52 27 110 59 129 71 18 12 57 29 85 38 29 9 68 27 87 40 19 13 41
23 49 22 8 -1 20 -24 28 -50z m2138 -103 c28 -9 69 -25 93 -35 23 -11 52 -19
63 -19 26 0 116 -43 147 -69 24 -20 22 -41 -2 -41 -26 0 -156 -47 -173 -62
-10 -9 -34 -24 -53 -35 -53 -29 -100 -75 -100 -99 0 -12 -10 -25 -25 -32 -16
-7 -25 -20 -25 -34 0 -13 -11 -41 -25 -63 -32 -52 -32 -105 0 -170 14 -27 25
-56 25 -64 0 -7 10 -26 23 -41 12 -16 30 -41 41 -55 18 -27 145 -115 165 -115
27 0 121 -43 121 -55 0 -8 -11 -20 -24 -27 -14 -7 -76 -43 -138 -79 -221 -128
-328 -169 -354 -135 -6 9 -10 26 -7 37 3 11 -1 27 -9 37 -13 16 -16 112 -8
242 1 14 -1 134 -5 267 -5 212 -4 245 10 273 13 25 16 56 14 143 -2 101 7 220
18 240 8 14 177 7 228 -9z m-2604 -214 c98 -37 145 -68 160 -103 6 -15 18 -31
25 -35 19 -11 44 -112 44 -179 0 -30 -7 -83 -16 -117 -13 -51 -23 -68 -62
-104 -26 -23 -67 -52 -92 -65 -25 -13 -60 -33 -79 -45 -107 -66 -358 -65 -452
2 -19 14 -54 35 -78 48 -41 22 -111 91 -111 111 0 5 -8 21 -18 35 -33 49 -45
123 -30 186 11 47 23 67 83 130 38 41 90 85 115 98 25 13 57 32 71 41 34 23
159 37 273 31 68 -3 109 -11 167 -34z m3179 -5 c14 -8 38 -14 53 -15 35 0 134
-50 174 -88 18 -16 35 -42 39 -58 4 -16 15 -39 24 -51 9 -11 22 -47 30 -78 16
-65 5 -129 -30 -177 -11 -15 -20 -31 -20 -35 0 -45 -144 -159 -238 -189 -106
-34 -312 -28 -394 11 -90 43 -185 109 -193 135 -3 10 -14 25 -25 35 -11 10
-20 30 -20 45 0 15 -7 47 -15 71 -14 39 -14 50 -1 104 8 33 18 72 21 87 3 15
14 29 25 33 12 4 46 31 77 61 31 30 61 54 67 54 6 0 47 15 91 34 75 32 87 34
195 35 82 0 122 -4 140 -14z"/>
<path d="M3050 6411 c0 -6 5 -13 10 -16 23 -14 8 -34 -30 -40 -30 -5 -40 -12
-40 -25 0 -10 6 -20 12 -22 8 -3 11 -20 10 -44 -2 -29 2 -45 14 -55 15 -12 19
-11 32 9 8 12 25 22 37 22 25 0 32 -17 37 -95 l3 -40 -42 -6 c-57 -7 -61 -14
-23 -34 24 -12 39 -14 54 -8 11 6 37 8 56 6 39 -4 66 9 56 26 -4 6 -23 11 -41
11 l-35 0 6 48 c10 85 13 92 38 92 15 0 35 -12 51 -32 22 -26 25 -37 20 -70
-6 -32 -4 -38 11 -38 10 0 27 -9 38 -19 28 -26 80 -32 84 -10 2 10 -8 21 -28
29 -34 14 -38 33 -15 76 8 16 15 36 15 45 0 9 9 24 20 34 21 19 27 69 10 80
-19 11 -52 -21 -76 -73 -17 -40 -28 -53 -41 -50 -15 3 -18 15 -19 70 -2 58 1
68 17 73 21 7 26 35 6 35 -17 0 -51 -37 -68 -75 -13 -27 -19 -30 -69 -33 -93
-5 -131 15 -69 37 30 10 31 13 24 48 -4 21 -9 41 -11 45 -7 11 -54 10 -54 -1z"/>
<path d="M3730 6380 c0 -40 -47 -70 -111 -70 -42 0 -48 -3 -57 -27 -6 -16 -13
-59 -16 -98 -3 -38 -6 -81 -8 -94 -2 -20 3 -27 29 -34 23 -7 37 -6 48 3 13 11
11 17 -15 48 -29 36 -31 52 -5 52 21 0 35 33 35 78 0 43 20 61 40 37 11 -13
10 -133 -1 -190 -3 -16 1 -20 25 -20 28 0 38 10 50 48 4 12 16 17 40 17 44 0
56 -17 21 -30 -47 -18 -24 -35 43 -32 44 2 68 -1 86 -13 24 -16 25 -16 51 25
14 23 24 49 21 58 -3 9 -1 24 4 32 6 10 3 21 -10 35 -17 18 -18 25 -8 58 6 20
9 40 5 43 -3 4 -50 7 -105 8 -54 2 -104 6 -111 10 -9 6 -1 19 30 47 l43 39
-62 0 -62 0 0 -30z"/>
<path d="M3581 5842 c-12 -22 -14 -81 -5 -134 5 -30 2 -39 -15 -50 -27 -16
-27 -48 0 -71 22 -19 19 -48 -7 -78 -13 -14 -12 -18 1 -29 23 -19 60 -15 91 9
15 11 35 21 46 21 11 0 23 11 29 26 13 35 6 39 -30 24 -17 -7 -37 -10 -46 -6
-22 8 -19 59 6 90 20 26 21 28 3 47 -25 28 -5 44 57 43 61 -1 84 -19 52 -41
-17 -11 -23 -25 -23 -52 0 -52 9 -60 47 -45 34 14 45 38 47 94 l1 35 72 5 c77
5 99 16 69 34 -11 6 -30 22 -43 35 -13 13 -24 22 -26 20 -1 -2 -7 -13 -13 -24
-6 -11 -22 -20 -35 -20 -20 0 -25 6 -27 33 -3 29 -6 33 -30 30 -21 -2 -28 -10
-32 -33 -4 -24 -12 -32 -40 -38 -22 -6 -45 -5 -63 2 -28 11 -31 15 -41 64 -7
31 -31 36 -45 9z"/>
<path d="M3013 5835 c-30 -13 -40 -31 -33 -60 1 -5 2 -23 2 -38 -1 -23 6 -31
34 -43 33 -14 38 -34 9 -34 -8 0 -25 -4 -38 -9 -25 -10 -25 -11 -13 -53 9 -29
20 -44 32 -46 43 -7 46 -10 29 -35 -16 -26 -12 -37 16 -37 12 0 21 10 25 25
12 49 89 64 100 20 8 -31 25 -32 60 -2 22 19 29 36 35 88 5 35 6 82 3 104 -5
36 -2 42 23 61 16 12 44 25 63 29 46 10 55 16 39 26 -23 14 -57 10 -96 -11
-21 -11 -45 -20 -55 -20 -12 0 -18 -10 -20 -32 -3 -32 -4 -33 -52 -33 -61 0
-71 19 -22 39 42 18 50 53 14 60 -64 13 -126 13 -155 1z"/>
<path d="M3924 5675 c-12 -8 -27 -27 -33 -43 -7 -16 -23 -34 -37 -40 -18 -9
-24 -19 -24 -46 0 -29 -4 -34 -30 -39 -16 -4 -30 -11 -30 -17 0 -16 50 -12 56
5 8 21 27 19 84 -10 60 -30 90 -32 90 -6 0 14 -10 21 -37 28 -36 8 -38 11 -41
51 -3 35 1 46 23 66 42 39 23 83 -21 51z"/>
<path d="M12848 5030 c-22 -6 -23 -10 -24 -104 -2 -85 -5 -100 -24 -121 -18
-19 -134 -65 -167 -65 -6 0 -16 -7 -23 -15 -7 -8 -31 -20 -54 -26 -22 -6 -46
-15 -52 -20 -6 -5 -53 -30 -105 -56 -52 -25 -110 -59 -129 -73 -57 -44 -124
-70 -182 -70 -56 0 -172 -32 -198 -54 -8 -7 -28 -16 -43 -20 -63 -15 -171
-105 -204 -171 -9 -16 -24 -41 -34 -54 -16 -20 -19 -42 -19 -133 0 -118 5
-133 57 -188 18 -19 38 -49 44 -67 12 -37 51 -62 179 -117 65 -27 100 -36 143
-36 56 0 118 -25 280 -112 18 -10 52 -24 77 -32 25 -8 71 -28 102 -45 32 -17
72 -31 91 -31 18 0 58 -9 90 -20 31 -11 74 -20 96 -20 47 0 55 -10 52 -65 -1
-23 5 -49 13 -60 14 -20 31 -20 1637 -23 1144 -1 1625 1 1635 9 8 6 11 23 8
42 -4 22 3 51 20 90 22 48 33 61 69 77 23 11 49 24 57 29 22 13 106 51 113 51
3 0 25 13 49 29 24 16 60 36 81 44 20 9 40 23 43 32 4 9 34 29 68 46 33 17 70
38 81 48 29 27 109 49 197 54 42 3 87 12 100 20 12 8 37 18 54 22 18 3 40 15
50 27 11 11 32 27 49 35 40 20 93 71 113 108 35 64 43 101 42 200 0 81 -4 105
-19 125 -10 14 -21 39 -25 56 -12 55 -132 159 -218 189 -24 8 -81 20 -128 26
-47 6 -95 17 -107 25 -12 8 -28 14 -35 14 -7 0 -30 11 -51 25 -64 44 -210 113
-254 120 -22 3 -49 13 -60 20 -10 8 -37 15 -61 15 -24 0 -56 7 -72 15 -16 9
-50 18 -75 22 -52 7 -53 10 -57 112 -3 62 -4 65 -33 73 -32 9 -3198 7 -3237
-2z m459 -61 c19 -7 205 -10 561 -8 292 1 535 -1 540 -5 10 -10 13 -1527 3
-1599 -4 -33 -14 -63 -22 -68 -11 -7 -1119 -6 -1289 2 -25 1 -75 -1 -111 -6
-60 -7 -69 -6 -98 15 -29 22 -30 25 -14 42 15 16 15 20 0 36 -26 28 -30 67
-12 102 15 30 17 97 16 748 l-1 715 21 23 c21 22 24 23 200 18 98 -2 191 -9
206 -15z m2712 3 c19 -37 26 -308 25 -922 -2 -623 -6 -731 -27 -757 -7 -10
-169 -13 -747 -13 -858 0 -777 -12 -773 114 3 77 8 1014 6 1161 0 50 0 113 0
140 0 28 -1 88 -3 135 -4 96 7 127 48 136 15 3 41 9 57 13 17 4 339 8 718 8
634 2 688 0 696 -15z m249 -212 c35 -11 75 -20 88 -20 13 0 41 -9 61 -20 21
-11 47 -20 58 -21 11 0 43 -13 70 -29 28 -16 60 -34 73 -39 12 -6 22 -15 22
-19 0 -9 -106 -52 -127 -52 -5 0 -18 -9 -27 -19 -10 -11 -31 -23 -46 -26 -15
-3 -42 -22 -59 -41 -17 -18 -36 -34 -41 -34 -6 0 -10 -9 -10 -19 0 -11 -11
-28 -24 -38 -16 -13 -25 -34 -30 -67 -4 -27 -15 -64 -24 -83 -15 -31 -15 -37
0 -81 9 -26 19 -65 23 -87 4 -21 18 -52 31 -68 13 -16 24 -34 24 -41 0 -14 54
-55 182 -141 20 -13 48 -27 63 -31 16 -4 25 -12 23 -22 -4 -20 -84 -76 -122
-86 -16 -4 -47 -22 -70 -40 -43 -34 -238 -136 -261 -136 -7 0 -15 7 -19 15 -3
9 -6 292 -6 630 0 572 2 615 18 624 26 15 60 13 130 -9z m-3453 -57 c5 -14 8
-449 6 -883 0 -19 0 -107 0 -196 0 -150 -1 -161 -21 -179 -21 -19 -22 -19
-104 9 -45 15 -109 31 -142 35 -35 5 -92 23 -139 46 -107 50 -135 71 -135 100
0 20 7 26 43 36 133 35 174 57 246 130 37 37 77 107 89 154 16 58 0 175 -28
214 -12 18 -26 47 -31 66 -13 46 -121 139 -228 197 -46 24 -81 50 -81 58 0 16
107 70 140 70 10 0 34 13 52 28 59 51 239 128 304 131 12 1 25 -7 29 -16z
m4058 -163 c20 -11 52 -20 70 -20 35 0 127 -44 141 -67 4 -8 19 -24 32 -36 13
-11 24 -27 24 -34 0 -8 12 -26 26 -40 50 -50 64 -83 64 -156 0 -87 -43 -185
-96 -218 -19 -11 -40 -30 -48 -41 -17 -23 -118 -68 -156 -68 -14 0 -45 -9 -69
-20 -53 -25 -168 -27 -210 -5 -16 8 -48 17 -71 21 -38 6 -90 39 -145 92 -62
59 -105 114 -105 135 0 13 -6 44 -13 69 -19 60 6 171 41 187 12 6 22 19 22 29
0 32 143 152 180 152 10 0 37 9 61 20 62 28 199 28 252 0z m-4533 -156 c90
-50 160 -107 160 -130 0 -7 11 -25 23 -41 75 -90 99 -219 52 -283 -14 -19 -25
-39 -25 -45 0 -6 -11 -22 -25 -35 -14 -13 -25 -29 -25 -37 0 -19 -35 -38 -130
-71 -118 -42 -232 -66 -272 -58 -111 21 -160 34 -217 56 -56 21 -69 31 -107
84 -24 34 -53 73 -64 88 -60 78 -52 252 14 307 9 8 16 19 16 27 0 34 144 134
227 157 10 3 90 4 178 3 136 -2 165 -6 195 -22z"/>
<path d="M13360 4293 c0 -21 -3 -55 -6 -75 -8 -45 10 -57 57 -38 21 9 32 22
36 42 7 38 18 43 87 43 42 0 61 4 64 14 4 11 -8 13 -62 9 -60 -5 -70 -3 -95
18 -16 13 -41 24 -55 24 -23 0 -26 -4 -26 -37z"/>
<path d="M13815 4320 c-4 -7 -2 -17 4 -23 9 -9 -4 -26 -50 -68 -34 -32 -58
-62 -55 -68 4 -6 24 -11 44 -11 53 0 67 -11 52 -41 -7 -13 -21 -35 -31 -48
-11 -13 -19 -32 -19 -42 0 -10 -9 -23 -20 -29 -11 -6 -18 -15 -15 -20 3 -6 19
0 35 12 19 14 50 23 86 26 71 6 78 22 30 66 -40 37 -48 82 -20 110 19 19 35
20 58 3 16 -12 17 -16 5 -36 -12 -18 -12 -23 1 -31 22 -14 51 -12 84 5 33 18
46 19 46 5 0 -5 -5 -10 -11 -10 -13 0 -79 -52 -79 -63 0 -4 13 -13 29 -18 23
-8 30 -18 35 -50 6 -35 9 -39 34 -39 34 0 52 16 52 46 0 28 17 42 60 46 50 4
47 31 -4 38 -50 6 -58 26 -14 38 25 6 34 14 36 33 2 14 -4 32 -13 39 -14 12
-14 14 0 30 12 13 14 28 9 58 -8 49 -17 52 -135 43 -71 -5 -93 -11 -125 -33
-49 -34 -86 -29 -82 10 3 26 -15 41 -27 22z"/>
<path d="M15564 4314 c-17 -7 -36 -20 -43 -28 -20 -24 -50 -19 -61 10 -12 31
-44 29 -46 -2 -1 -27 -20 -54 -61 -88 -18 -15 -33 -31 -33 -36 0 -4 19 -14 42
-22 49 -15 59 -37 29 -67 -12 -12 -21 -34 -21 -50 0 -17 -4 -33 -10 -36 -19
-12 -10 -22 15 -17 14 2 34 15 44 28 21 26 41 30 58 13 9 -9 18 -8 38 5 16 10
40 16 63 14 32 -3 37 -7 43 -36 4 -19 12 -39 18 -45 16 -16 41 10 41 43 0 31
14 40 68 40 39 0 71 14 59 26 -4 4 -23 10 -44 13 -46 8 -53 26 -15 39 l29 10
-1 98 -1 99 -90 1 c-53 1 -103 -4 -121 -12z m156 -111 c0 -42 -46 -54 -125
-32 -36 10 -41 9 -58 -12 -18 -22 -18 -24 -1 -36 10 -7 31 -13 47 -13 18 0 27
-4 25 -12 -3 -9 -27 -13 -74 -13 l-68 0 -9 45 c-8 40 -7 46 15 65 20 17 40 20
136 23 104 3 112 2 112 -15z"/>
<path d="M2121 4862 c-6 -11 -11 -57 -11 -100 0 -77 -1 -81 -31 -106 -17 -14
-36 -26 -43 -26 -6 0 -19 -9 -29 -20 -9 -11 -25 -20 -34 -21 -10 0 -42 -12
-71 -27 -29 -15 -92 -47 -140 -70 -48 -24 -96 -52 -107 -62 -11 -9 -42 -30
-68 -46 -131 -79 -141 -83 -202 -84 -33 0 -78 -5 -100 -11 -22 -5 -57 -14 -78
-20 -20 -5 -46 -18 -57 -29 -11 -11 -31 -20 -44 -20 -49 0 -206 -146 -206
-193 0 -5 -9 -20 -20 -34 -17 -22 -20 -41 -20 -119 0 -88 2 -96 25 -116 14
-12 25 -27 25 -33 0 -60 237 -235 318 -235 12 0 33 -7 45 -14 12 -8 54 -18 92
-21 40 -4 81 -14 95 -24 45 -31 214 -110 256 -119 23 -5 52 -17 65 -26 13 -9
37 -16 54 -16 17 0 41 -7 53 -16 13 -9 56 -19 97 -23 41 -4 80 -12 87 -19 6
-6 11 -32 10 -56 -2 -39 2 -48 25 -63 25 -17 66 -18 528 -19 320 -1 514 -6
540 -12 46 -13 2233 -20 2253 -8 15 9 32 71 32 121 1 60 54 113 129 130 18 4
52 20 75 35 22 15 73 41 111 58 39 17 86 44 105 60 19 16 48 32 64 36 16 4 48
23 71 41 54 45 113 65 187 65 32 0 84 9 116 19 31 10 71 22 89 26 17 3 37 13
44 21 7 9 41 28 76 44 35 16 66 37 70 47 4 10 26 41 50 68 24 28 48 66 53 85
21 73 7 263 -19 279 -6 4 -26 29 -46 56 -40 57 -157 140 -219 156 -22 5 -63
16 -91 24 -27 8 -69 16 -92 19 -23 3 -54 12 -70 20 -69 35 -121 56 -136 56 -9
0 -19 5 -22 11 -10 15 -103 55 -150 63 -21 4 -48 14 -59 22 -11 8 -30 14 -41
14 -11 0 -29 6 -40 14 -11 7 -60 17 -110 21 -49 4 -96 12 -102 17 -8 6 -13 34
-13 67 -1 105 79 95 -793 104 -419 4 -805 9 -857 11 -52 3 -458 8 -901 12
l-807 7 -11 -21z m1054 -34 c28 -6 164 -13 303 -15 186 -3 252 -7 253 -16 9
-103 15 -488 9 -602 -1 -16 -2 -48 -2 -70 0 -22 0 -69 0 -105 0 -97 11 -361
16 -368 2 -4 0 -47 -4 -97 -5 -49 -5 -96 0 -104 5 -9 4 -24 -3 -36 -6 -11 -13
-81 -16 -155 l-6 -135 -765 4 c-630 3 -768 6 -779 17 -12 11 -15 47 -14 176 3
1390 4 1475 19 1496 l15 22 462 -1 c292 0 480 -4 512 -11z m1455 -25 l735 -5
23 -22 c23 -23 23 -25 15 -137 -5 -63 -7 -139 -5 -169 1 -30 5 -190 8 -355 2
-165 5 -320 5 -345 1 -50 -7 -316 -15 -509 -4 -95 -8 -128 -21 -140 -14 -14
-75 -16 -583 -15 -312 1 -655 5 -762 10 l-195 9 -6 140 c-3 77 -11 153 -18
168 -8 22 -8 33 1 50 10 17 14 174 16 667 2 591 4 646 20 658 9 7 23 10 32 6
8 -3 346 -8 750 -11z m985 -209 c33 -3 76 -11 95 -19 19 -8 56 -17 82 -20 26
-3 50 -10 53 -15 3 -5 24 -14 46 -20 107 -29 170 -109 86 -110 -10 0 -42 -12
-70 -26 -127 -62 -143 -76 -216 -169 l-46 -60 0 -135 c0 -130 1 -137 28 -182
16 -27 33 -48 38 -48 5 0 19 -12 32 -26 25 -29 118 -94 135 -94 6 0 23 -6 39
-14 15 -8 41 -19 56 -25 42 -17 34 -52 -17 -69 -21 -7 -58 -26 -83 -42 -24
-17 -48 -30 -52 -30 -4 0 -29 -16 -54 -35 -26 -20 -60 -38 -77 -41 -17 -4 -33
-10 -35 -15 -3 -4 -30 -19 -60 -33 -87 -42 -138 -32 -149 28 -5 28 -1 44 19
76 l25 40 0 536 c-1 567 -1 573 44 559 12 -4 48 -9 81 -11z m-3531 -34 l26
-10 0 -567 c-1 -584 -3 -627 -42 -684 -14 -21 -19 -22 -37 -12 -11 7 -39 16
-63 19 -48 7 -103 22 -224 58 -73 22 -194 89 -194 107 0 4 17 13 38 19 44 14
101 37 122 50 8 5 43 26 78 46 37 21 67 46 73 61 5 13 15 26 24 29 8 3 28 33
45 67 26 52 30 71 30 141 0 61 -4 88 -17 106 -10 14 -28 45 -40 70 -12 25 -30
55 -40 66 -19 23 -118 94 -130 94 -3 0 -14 7 -24 15 -9 9 -38 21 -64 28 -54
14 -76 37 -56 60 7 9 47 33 89 54 42 21 97 52 122 68 25 17 70 41 100 55 30
13 62 29 70 36 14 10 65 31 82 33 4 1 18 -3 32 -9z m4206 -186 c30 -3 62 -12
70 -19 8 -7 30 -16 49 -20 33 -7 123 -61 130 -78 2 -5 16 -23 31 -40 31 -37
50 -86 50 -133 0 -18 5 -36 10 -39 6 -3 10 -13 10 -22 0 -33 -41 -151 -60
-173 -11 -13 -20 -27 -20 -32 0 -40 -177 -128 -307 -152 -78 -15 -101 -16
-145 -6 -218 51 -293 95 -380 225 l-40 60 4 88 c2 76 6 91 24 106 12 9 27 27
33 40 34 62 153 161 196 161 8 0 26 7 39 15 26 17 151 35 211 30 22 -2 65 -7
95 -11z m-4755 -142 c33 -5 74 -16 90 -24 17 -9 56 -29 88 -44 73 -34 142
-111 152 -169 4 -22 11 -55 17 -74 8 -24 7 -49 -2 -90 -19 -86 -30 -110 -74
-156 -23 -24 -47 -51 -54 -59 -7 -9 -22 -16 -33 -16 -11 0 -48 -16 -80 -35
-33 -19 -70 -35 -81 -35 -12 0 -47 -5 -78 -12 -66 -13 -263 7 -282 29 -6 7
-14 13 -19 13 -28 0 -169 118 -169 142 0 5 -13 21 -29 36 -39 37 -50 77 -44
158 5 82 18 120 53 154 14 15 41 44 61 65 20 22 43 45 51 51 36 28 113 53 180
60 40 4 82 11 93 15 11 5 38 6 60 4 22 -3 67 -9 100 -13z"/>
<path d="M2604 4168 c-5 -7 -11 -38 -14 -68 -5 -55 -5 -55 -40 -58 -79 -6 -80
-6 -80 -73 0 -33 5 -69 10 -79 10 -18 12 -18 40 -2 30 17 38 36 21 46 -16 10
-19 46 -6 60 8 7 39 17 70 21 54 6 56 7 40 25 -16 17 -15 20 5 48 30 41 24 86
-12 90 -14 2 -30 -3 -34 -10z"/>
<path d="M3031 4157 c-5 -14 -7 -34 -4 -45 6 -26 -12 -59 -36 -67 -21 -6 -56
-53 -47 -63 4 -3 12 0 18 6 20 20 48 14 58 -14 12 -31 4 -72 -21 -99 -21 -24
-40 -71 -32 -79 15 -15 44 -4 57 23 18 34 33 41 89 41 66 0 78 14 34 40 -49
29 -82 82 -67 109 12 23 51 37 75 27 8 -3 15 -17 15 -31 0 -42 18 -64 63 -76
l42 -11 -30 -24 -29 -23 27 -10 c22 -8 27 -17 27 -43 0 -18 4 -39 9 -47 13
-20 41 -6 41 21 0 48 12 69 43 75 l30 6 -24 19 c-23 18 -23 19 -5 31 45 28 53
44 59 117 9 107 9 107 -128 107 -98 1 -119 -2 -139 -18 -30 -24 -65 -24 -72
-1 -16 52 -40 65 -53 29z"/>
<path d="M4743 4143 c-8 -3 -13 -23 -13 -49 0 -41 -2 -45 -40 -64 -46 -23 -58
-43 -40 -64 7 -10 22 -13 46 -9 31 5 34 4 34 -20 0 -33 -47 -127 -74 -149 -16
-13 -18 -20 -9 -29 9 -9 19 -6 45 16 18 15 39 38 46 51 13 25 27 30 37 14 11
-18 47 -11 70 14 l23 25 -36 8 c-27 6 -37 15 -43 36 -12 45 3 81 35 85 38 5
51 -10 36 -38 -14 -26 -1 -40 37 -40 28 0 38 -17 22 -36 -10 -12 -8 -18 9 -30
14 -10 22 -26 22 -44 0 -43 10 -60 36 -60 26 0 54 34 54 67 0 12 9 28 20 36
19 13 19 13 -1 30 -26 23 -16 37 26 37 39 0 50 12 36 37 -6 13 -5 24 5 38 15
20 18 77 5 109 -6 17 -19 20 -74 22 -74 2 -92 -8 -50 -28 19 -9 29 -24 34 -48
9 -43 -4 -60 -45 -60 -47 0 -60 13 -53 51 14 74 14 74 -20 77 -23 2 -40 -5
-67 -28 -40 -35 -66 -34 -66 3 0 13 -5 28 -12 35 -13 13 -16 13 -35 5z"/>
<path d="M167 3093 c-7 -401 -7 -477 -6 -803 1 -168 2 -438 1 -600 -1 -162 -1
-306 -1 -320 1 -31 0 -156 -2 -190 0 -14 -1 -37 0 -52 0 -16 0 -34 0 -40 0 -7
-2 -207 -5 -443 -3 -251 -1 -441 4 -455 l9 -25 1320 3 c952 3 1323 1 1327 -7
10 -15 49 -14 65 2 8 8 43 12 98 12 85 0 115 12 76 31 -10 5 -650 10 -1423 12
-773 1 -1408 6 -1412 10 -4 4 -10 192 -12 417 -2 226 -7 418 -11 427 -4 9 -2
24 3 34 6 10 6 31 -1 55 -7 28 -6 43 2 53 8 10 9 21 3 33 -4 10 -7 65 -5 123
3 127 4 86 -3 380 -7 278 -7 272 -4 360 2 36 2 92 2 125 -1 33 0 78 0 100 1
22 1 87 0 145 -1 58 -1 274 -1 480 0 206 0 378 -1 383 0 4 -4 7 -10 7 -5 0
-11 -104 -13 -257z"/>
<path d="M9975 3296 c-16 -12 -20 -32 -26 -127 -3 -69 -2 -119 4 -127 5 -7 7
-29 5 -50 -3 -21 -2 -63 3 -93 7 -43 5 -61 -8 -89 -14 -29 -14 -38 -2 -65 11
-24 14 -182 16 -849 2 -645 6 -821 15 -828 7 -4 151 -8 319 -8 168 0 309 -3
312 -6 10 -10 -30 -63 -85 -114 -26 -25 -48 -51 -48 -57 0 -6 -22 -28 -49 -48
-27 -19 -51 -44 -53 -53 -3 -19 -177 -181 -216 -201 -16 -8 -22 -20 -20 -34 2
-17 11 -23 41 -25 20 -2 37 1 37 6 0 5 15 25 33 44 17 20 39 45 47 58 8 12 28
28 43 36 15 8 33 27 40 42 7 14 31 46 55 70 23 24 42 47 42 51 0 5 9 12 19 17
17 8 156 140 204 194 17 20 33 20 846 20 521 0 857 -4 905 -10 58 -9 1907 -17
2375 -11 30 0 90 12 135 27 45 15 90 28 101 29 12 1 20 9 20 20 0 39 -72 42
-1395 51 -696 4 -1319 9 -1385 10 -170 3 -730 4 -920 2 -88 -2 -223 -2 -300
-1 -77 1 -317 1 -533 0 -337 -1 -395 1 -408 14 -13 13 -15 142 -15 1042 0 617
-3 1037 -9 1052 -9 23 -15 25 -68 25 -34 0 -66 -6 -77 -14z"/>
<path d="M12144 3028 c-2 -3 -146 -7 -319 -7 -173 1 -325 -3 -337 -6 -13 -4
-34 -18 -48 -30 -14 -13 -47 -30 -75 -38 -27 -8 -70 -27 -95 -41 -25 -14 -52
-29 -60 -32 -66 -28 -120 -56 -125 -63 -3 -6 -30 -21 -61 -35 -31 -14 -69 -37
-85 -50 -56 -47 -130 -78 -209 -86 -126 -13 -300 -65 -300 -90 0 -5 -20 -21
-45 -37 -24 -15 -48 -40 -54 -55 -5 -14 -19 -31 -30 -38 -12 -6 -21 -19 -21
-28 0 -10 -6 -26 -13 -37 -19 -28 -37 -96 -37 -137 0 -47 45 -167 75 -198 128
-134 189 -173 292 -185 32 -4 70 -14 85 -21 15 -8 41 -14 59 -14 28 0 96 -27
154 -62 11 -7 31 -19 45 -28 34 -20 84 -39 146 -54 28 -8 59 -18 70 -24 11 -6
49 -14 84 -18 36 -3 76 -12 90 -19 26 -13 138 -28 200 -26 19 0 177 1 352 3
174 2 320 6 324 11 4 4 4 10 0 14 -4 5 -149 10 -321 13 -234 4 -317 8 -327 18
-10 10 -12 150 -10 660 1 640 2 647 22 664 11 9 44 20 74 23 29 4 417 2 862
-4 445 -6 851 -11 901 -10 90 1 94 0 122 -29 l29 -29 -4 -464 c-6 -551 -6
-488 -2 -676 2 -114 0 -155 -10 -165 -24 -24 -499 -13 -606 14 -37 9 -38 10
-32 46 16 99 16 127 -1 162 -16 31 -23 35 -62 38 -24 2 -49 -2 -54 -7 -8 -8
-6 -11 6 -11 9 0 26 -9 37 -20 17 -17 20 -33 20 -108 0 -55 -4 -92 -12 -100
-8 -8 -60 -12 -172 -11 -181 1 -264 9 -276 29 -5 8 -7 44 -6 82 2 54 7 73 23
89 30 30 96 41 200 34 99 -8 168 -1 157 16 -3 6 -55 10 -127 9 -67 0 -162 2
-212 5 -52 4 -96 2 -104 -4 -19 -13 -18 -67 2 -89 26 -29 16 -107 -19 -143
-15 -16 -35 -29 -43 -29 -38 0 11 -23 65 -30 33 -5 88 -13 124 -18 56 -9 216
-12 997 -16 78 -1 145 2 149 7 4 4 12 40 17 80 9 80 10 1320 0 1352 -3 11 -11
23 -17 27 -6 4 -273 8 -594 8 -482 0 -589 2 -617 14 -35 15 -232 18 -241 4z
m-683 -198 c3 -36 9 -72 14 -80 5 -8 8 -82 7 -165 -1 -82 -2 -332 -2 -554 l0
-403 -42 6 c-24 3 -81 10 -128 16 -47 6 -99 18 -117 26 -17 8 -41 14 -53 14
-28 0 -179 81 -204 109 -18 20 -18 21 8 31 15 5 38 10 51 10 13 0 47 16 76 35
30 19 60 35 68 35 9 0 45 32 82 70 84 87 111 151 113 260 1 64 -2 80 -21 104
-13 16 -23 37 -23 47 0 10 -8 24 -18 31 -9 7 -32 32 -51 56 -18 23 -47 49 -65
58 -17 8 -56 28 -86 44 -30 17 -64 30 -76 30 -65 0 -75 42 -16 68 35 16 91 50
102 62 17 18 72 50 95 56 15 4 47 18 70 31 24 13 63 35 87 48 28 16 56 23 83
22 l40 -2 6 -65z m-561 -247 c41 -8 84 -21 95 -28 11 -6 32 -15 46 -18 14 -4
63 -42 108 -85 69 -66 82 -84 87 -117 3 -22 12 -56 21 -76 13 -33 13 -39 -1
-67 -9 -17 -16 -41 -16 -53 0 -42 -40 -106 -83 -135 -23 -16 -60 -43 -82 -60
-88 -69 -123 -79 -295 -78 -176 0 -189 4 -304 82 -90 61 -146 130 -146 182 0
22 -8 48 -20 63 -11 14 -20 32 -20 40 0 7 9 24 20 37 11 13 20 37 20 54 0 29
31 84 81 147 30 37 128 83 224 106 33 7 74 17 90 22 33 10 64 7 175 -16z"/>
<path d="M12237 2916 c-9 -22 -66 -49 -90 -42 -36 9 -47 -11 -47 -90 0 -66 -2
-75 -27 -98 -50 -46 -42 -170 10 -150 11 4 17 22 19 57 l3 52 38 -1 c46 -2 55
-9 40 -33 -16 -26 -8 -31 49 -31 51 0 64 14 23 24 -29 7 -31 18 -9 41 20 20
36 15 49 -13 5 -12 13 -22 17 -22 3 0 14 -7 23 -16 55 -56 130 -81 152 -51 5
6 10 36 11 64 2 46 -1 55 -23 69 -22 14 -25 23 -25 79 0 58 2 63 27 74 27 12
27 13 8 27 -10 8 -42 14 -70 14 -55 0 -109 21 -119 45 -7 19 -52 19 -59 1z"/>
<path d="M6306 2853 c-3 -3 -1414 -17 -1486 -15 -19 1 -48 2 -65 2 -262 3
-373 -4 -401 -24 -13 -10 -15 -46 -14 -271 1 -143 2 -458 3 -700 l2 -440 1066
-2 c934 -2 1068 -1 1079 12 7 8 18 15 26 15 7 0 19 6 26 13 16 17 125 67 147
68 9 0 36 14 61 30 25 16 55 33 68 39 13 5 30 17 38 25 9 8 23 15 32 15 16 0
89 44 176 107 79 57 134 73 249 73 55 0 79 5 102 20 17 11 38 20 48 20 10 0
32 7 50 16 32 16 47 28 91 72 13 12 28 22 33 22 14 0 61 76 73 118 5 20 19 51
30 67 27 41 28 128 1 147 -10 8 -24 32 -30 54 -6 23 -20 49 -31 59 -11 10 -20
24 -20 31 0 18 -88 93 -135 115 -61 28 -163 57 -240 68 -42 6 -92 22 -127 41
-32 16 -67 30 -77 30 -10 0 -36 13 -59 30 -23 16 -79 42 -124 56 -46 15 -104
35 -130 45 -26 11 -69 19 -96 19 -27 0 -62 4 -78 10 -24 7 -281 20 -288 13z
m120 -79 c8 -10 11 -94 10 -267 -1 -138 2 -260 6 -269 5 -10 4 -48 -2 -85 -8
-51 -8 -79 1 -111 10 -35 9 -48 -1 -68 -11 -20 -11 -31 -2 -58 8 -21 12 -104
12 -238 0 -176 -2 -207 -16 -219 -15 -12 -98 -15 -619 -21 -16 0 -94 0 -173 2
-96 1 -147 -2 -157 -10 -10 -8 -19 -9 -35 0 -18 10 -156 14 -335 10 -22 -1
-182 0 -356 2 -385 4 -359 -6 -359 137 1 64 5 104 15 121 12 21 14 113 15 542
0 284 3 523 6 532 5 14 42 16 304 16 164 0 304 -2 312 -5 10 -4 13 -28 10
-108 -5 -153 -30 -142 302 -142 163 1 280 5 285 10 7 7 6 26 -1 54 -10 39 -9
48 12 87 24 42 24 43 5 64 -10 11 -15 23 -11 28 8 8 615 19 706 13 31 -2 60
-9 66 -17z m-831 0 c13 -13 15 -31 12 -84 -9 -117 6 -110 -241 -110 -186 0
-215 2 -220 16 -12 31 -7 182 7 187 6 3 105 6 219 6 179 1 209 -1 223 -15z
m1035 1 c30 -8 69 -15 85 -15 17 0 47 -9 68 -20 20 -11 46 -20 57 -20 12 0 38
-9 58 -19 20 -11 63 -32 96 -47 52 -25 57 -29 41 -40 -10 -8 -41 -21 -69 -30
-28 -9 -54 -22 -58 -29 -4 -7 -20 -16 -34 -19 -46 -12 -97 -54 -161 -132 -58
-70 -63 -81 -65 -128 -4 -112 4 -182 25 -226 43 -91 150 -183 264 -225 37 -14
72 -30 77 -35 9 -9 -76 -100 -94 -100 -11 0 -98 -46 -118 -62 -14 -12 -59 -31
-119 -49 -18 -5 -35 -14 -38 -19 -11 -18 -96 -51 -114 -45 -15 4 -19 20 -25
83 -3 42 -2 104 3 137 8 49 8 834 0 900 -2 11 -2 46 -1 78 2 50 5 59 25 67 30
12 34 12 97 -5z m703 -225 c31 -11 63 -20 71 -20 37 0 206 -108 206 -132 0 -5
10 -18 22 -30 19 -19 26 -39 45 -136 6 -36 -11 -134 -30 -168 -35 -61 -55 -84
-104 -117 -30 -21 -57 -37 -62 -37 -4 0 -16 -9 -26 -20 -10 -11 -26 -20 -35
-20 -10 0 -37 -7 -61 -16 -99 -36 -353 -14 -418 37 -13 11 -32 19 -42 19 -26
0 -49 11 -49 24 0 6 -17 27 -39 47 -55 52 -101 149 -101 212 0 82 41 173 107
235 59 56 154 112 189 112 12 0 37 7 55 15 52 22 202 20 272 -5z"/>
<path d="M6153 2700 c-23 -11 -44 -24 -47 -29 -3 -5 10 -21 29 -36 32 -24 41
-26 90 -20 71 9 112 -16 121 -75 4 -22 12 -47 19 -57 11 -15 15 -15 29 -4 30
25 15 121 -20 121 -8 0 -17 7 -21 16 -6 16 -133 104 -149 104 -5 -1 -28 -10
-51 -20z"/>
<path d="M5091 2481 c-27 -27 -59 -44 -106 -56 l-40 -10 -3 -65 c-2 -40 -9
-71 -18 -81 -9 -10 -14 -28 -12 -41 4 -32 52 -38 68 -9 11 21 44 28 54 12 10
-15 -4 -39 -26 -44 -24 -7 -21 -40 5 -45 34 -7 62 7 80 39 l17 31 25 -23 c13
-13 32 -31 42 -40 10 -9 23 -24 29 -35 9 -15 23 -19 63 -19 64 0 71 9 71 96 0
61 -2 68 -26 84 -24 16 -26 21 -22 76 3 38 11 65 23 79 13 15 15 20 4 19 -34
-2 -82 -27 -94 -49 l-13 -25 -11 27 c-5 15 -19 32 -31 38 -11 6 -20 17 -20 25
0 8 -9 19 -20 25 -15 8 -24 6 -39 -9z"/>
<path d="M5800 1891 c-5 -11 -10 -35 -10 -53 0 -19 -5 -39 -11 -45 -8 -8 -7
-17 2 -31 18 -29 6 -37 -48 -35 -58 2 -69 12 -54 53 13 37 8 50 -20 50 -14 0
-19 -7 -19 -25 0 -29 -39 -50 -77 -40 -20 5 -23 12 -23 51 0 38 -3 45 -17 42
-13 -2 -19 -14 -21 -41 -2 -26 -10 -42 -27 -53 -33 -22 -42 -68 -18 -102 10
-15 20 -38 23 -51 4 -21 14 -26 74 -38 l69 -14 22 27 c21 26 25 27 61 19 29
-8 40 -16 42 -32 3 -24 35 -32 47 -13 12 19 63 10 94 -16 17 -14 38 -23 46
-20 23 8 18 44 -7 57 -13 7 -26 17 -30 23 -15 22 -7 65 17 94 14 17 25 38 25
47 0 15 -6 17 -40 11 -32 -5 -41 -3 -50 13 -12 23 10 51 39 51 28 0 46 26 31
45 -7 8 -20 15 -29 15 -9 0 -25 7 -35 15 -27 20 -43 19 -56 -4z"/>
<path d="M5087 1863 c-2 -4 -5 -75 -6 -158 -2 -117 1 -154 12 -170 13 -16 17
-17 31 -6 11 10 16 36 18 104 l3 92 29 3 c18 2 40 -4 57 -17 35 -26 59 -27 59
-3 0 21 -42 47 -91 56 -45 8 -56 21 -61 66 -2 27 -8 36 -25 38 -11 2 -23 0
-26 -5z"/>
<path d="M12746 2778 c-20 -31 -8 -224 14 -238 22 -14 214 -12 228 2 17 17 15
58 -4 65 -11 4 -23 -2 -33 -16 -15 -19 -25 -22 -81 -19 l-65 3 -3 99 c-3 121
-22 156 -56 104z"/>
<path d="M18667 2638 c-3 -12 -6 -387 -5 -832 1 -729 0 -814 -15 -842 -15 -29
-15 -32 5 -52 21 -20 21 -23 5 -59 -25 -59 -29 -93 -15 -110 8 -11 13 -46 13
-102 l0 -86 28 -3 c26 -3 28 -1 26 25 -1 15 1 38 5 50 4 12 2 40 -5 62 -9 29
-9 44 -1 54 7 7 7 18 2 27 -5 8 -6 26 -3 41 3 17 -2 39 -13 57 -13 22 -15 34
-7 44 15 19 26 75 15 82 -7 4 -18 244 -14 316 7 112 7 861 1 884 -5 16 -5 36
0 44 5 9 5 25 -1 38 -7 16 -7 32 1 55 8 24 8 47 0 90 -8 42 -8 66 0 92 9 26 9
41 0 61 -11 22 -10 28 5 39 16 12 16 14 -2 30 -19 17 -20 17 -25 -5z"/>
<path d="M12947 2309 c-13 -8 -17 -18 -12 -38 4 -20 0 -35 -16 -55 -19 -24
-20 -32 -10 -48 15 -25 6 -38 -27 -38 -44 0 -54 13 -50 61 3 42 2 44 -26 47
-23 3 -34 -3 -53 -27 -28 -36 -49 -40 -58 -11 -7 21 10 59 33 76 23 17 5 37
-27 29 -40 -10 -71 -44 -71 -79 0 -17 -12 -51 -25 -75 l-26 -44 21 -22 c13
-13 20 -35 20 -58 0 -36 1 -37 39 -37 21 0 44 -6 50 -14 10 -11 18 -11 54 1
23 8 49 21 59 30 25 22 72 13 76 -15 3 -21 7 -22 48 -16 33 5 56 2 84 -11 49
-22 72 -14 68 22 -2 21 -10 29 -35 35 -33 9 -42 21 -23 33 6 3 10 14 10 24 0
10 9 30 21 45 27 34 17 46 -36 46 -46 0 -65 14 -46 33 6 6 11 19 11 30 0 12
11 23 30 30 32 12 37 26 18 45 -15 15 -76 15 -101 1z"/>
<path d="M12237 2304 c-4 -4 -4 -18 -1 -31 4 -13 1 -29 -4 -36 -7 -8 -8 -26
-2 -52 5 -21 5 -46 1 -54 -7 -13 -8 -70 -2 -118 0 -6 8 -19 17 -28 26 -26 44
-1 44 60 0 114 36 144 103 85 37 -32 47 -30 47 7 0 16 -8 27 -24 33 -13 5 -27
14 -31 19 -3 6 -21 11 -40 11 -44 0 -68 31 -59 77 6 30 4 33 -18 33 -14 0 -28
-3 -31 -6z"/>
<path d="M11597 1933 c-27 -26 48 -124 106 -138 15 -4 27 -11 27 -16 0 -17 64
-49 98 -49 32 0 78 33 67 49 -11 19 -88 51 -106 46 -39 -13 -85 13 -117 65
-29 46 -56 62 -75 43z"/>
<path d="M15283 1145 c-34 -7 -69 -17 -76 -24 -8 -6 -35 -14 -60 -17 -26 -4
-54 -15 -62 -25 -33 -35 10 -44 250 -47 236 -4 288 2 294 34 1 10 10 27 19 37
16 18 15 20 -7 38 -20 17 -39 19 -160 18 -75 -1 -164 -7 -198 -14z"/>
<path d="M17050 918 c1 -24 7 -61 15 -83 8 -22 15 -43 15 -47 0 -15 -41 -8
-46 7 -10 26 -22 17 -36 -27 -12 -34 -23 -47 -56 -63 -49 -24 -53 -35 -12 -35
19 0 34 7 42 20 8 12 28 23 51 27 40 6 81 39 109 88 10 17 23 37 30 47 10 13
7 22 -18 51 -23 28 -69 57 -90 57 -2 0 -4 -19 -4 -42z"/>
<path d="M17344 949 c-3 -6 0 -22 7 -37 10 -18 11 -26 3 -29 -29 -10 -46 -32
-49 -65 -3 -37 -27 -92 -45 -103 -5 -3 -10 -15 -10 -25 0 -17 5 -19 48 -14 73
9 75 10 68 48 -9 45 17 112 57 150 29 27 30 30 13 40 -11 6 -26 19 -35 29 -17
19 -46 23 -57 6z"/>
<path d="M15997 943 c-3 -4 -4 -66 -3 -138 l1 -130 52 -3 c48 -3 54 -1 65 22
6 15 15 26 19 26 11 0 39 29 39 41 0 5 -11 11 -24 15 -32 8 -40 55 -24 149 3
18 -3 20 -59 23 -34 2 -63 -1 -66 -5z"/>
<path d="M16315 909 c-16 -22 -41 -51 -55 -65 -25 -24 -25 -24 -4 -30 35 -9
61 -93 34 -109 -23 -14 -9 -35 23 -35 43 0 93 32 101 66 8 30 -5 44 -41 44
-25 0 -29 10 -11 28 9 9 8 18 -2 38 -13 23 -13 27 4 39 21 16 18 59 -4 62 -8
1 -28 -16 -45 -38z"/>
<path d="M16773 925 c-29 -14 -53 -29 -53 -35 0 -5 -15 -27 -34 -47 -18 -21
-36 -50 -40 -66 -5 -23 -1 -33 31 -62 24 -22 48 -35 65 -35 25 0 26 2 21 36
-7 43 14 142 36 168 9 10 28 25 44 32 29 15 28 34 -1 34 -9 -1 -41 -12 -69
-25z"/>
<path d="M18360 922 c-43 -17 -45 -20 -48 -60 -3 -40 -2 -42 25 -42 15 0 50
-11 77 -25 27 -14 55 -25 62 -25 6 0 17 -13 22 -30 10 -27 8 -31 -16 -45 l-27
-14 24 -1 c13 0 42 8 63 17 37 16 48 35 28 48 -6 4 -2 13 10 23 13 11 18 24
14 37 -8 27 -69 65 -104 65 -46 0 -60 10 -60 41 0 33 -8 35 -70 11z"/>
<path d="M4013 800 c-12 -5 -24 -19 -28 -32 -11 -32 -22 -37 -61 -26 -19 5
-38 7 -42 4 -14 -8 -7 -117 8 -126 10 -6 10 -15 1 -40 -17 -50 -13 -86 13
-116 l23 -28 28 28 c24 24 27 33 21 67 -4 23 -1 58 6 81 10 35 10 41 -5 50
-23 12 -21 23 7 42 22 14 27 14 58 -1 46 -22 46 -22 19 -42 l-24 -19 21 -11
c26 -14 28 -36 6 -49 -23 -13 -9 -31 19 -24 35 9 46 32 47 99 0 52 -3 64 -20
73 -11 6 -25 8 -30 5 -5 -3 -19 -1 -31 6 l-22 11 23 18 c38 28 12 50 -37 30z"/>
<path d="M5080 753 c-38 -26 -41 -36 -18 -60 26 -28 34 -96 19 -174 -7 -34
-10 -64 -6 -67 11 -11 84 -7 96 5 10 10 9 21 -4 50 -11 25 -19 75 -21 142 -3
72 -8 106 -18 112 -18 12 -20 11 -48 -8z"/>
<path d="M12611 751 c-12 -12 -21 -25 -21 -31 0 -20 -37 -9 -50 15 -17 32 -65
35 -73 5 -4 -14 -14 -20 -35 -20 -40 0 -46 -11 -43 -89 3 -80 12 -94 57 -85
38 7 66 -9 58 -31 -3 -8 1 -24 10 -37 9 -12 16 -30 16 -39 0 -9 9 -24 20 -34
33 -30 50 -5 50 74 0 39 5 72 12 79 9 9 9 15 0 24 -7 7 -12 31 -12 54 0 37 4
45 28 56 31 15 40 49 18 67 -12 10 -19 8 -35 -8z"/>
<path d="M13622 718 c-25 -25 -14 -38 31 -32 32 4 50 0 75 -15 40 -26 40 -43
2 -78 -19 -16 -30 -35 -28 -47 4 -28 24 -31 45 -6 10 12 28 33 41 46 37 41 33
78 -11 116 -26 23 -42 28 -87 28 -31 0 -61 -5 -68 -12z"/>
<path d="M8116 681 c-4 -5 -3 -16 0 -24 3 -10 -3 -18 -18 -22 -13 -4 -30 -16
-39 -28 -22 -27 -45 -17 -63 28 -18 42 -47 46 -97 12 -29 -19 -34 -29 -34 -62
0 -38 1 -40 35 -43 51 -4 64 -10 53 -25 -6 -6 -13 -24 -17 -39 -4 -20 -14 -29
-34 -34 -66 -14 -71 -28 -14 -39 48 -9 62 -21 62 -54 0 -45 42 -66 80 -41 13
9 13 12 -2 23 -30 24 -27 64 7 77 14 5 25 14 25 20 0 5 14 10 30 10 34 0 42
-26 13 -37 -22 -7 -52 -43 -53 -60 0 -26 42 -12 82 27 23 22 47 40 54 40 6 0
19 18 28 39 8 22 21 43 29 48 7 4 16 16 20 26 6 16 37 23 50 11 3 -4 2 -14 -3
-24 -13 -25 12 -59 32 -43 12 10 18 100 9 146 0 4 -37 7 -80 7 -103 0 -134 11
-125 45 5 19 2 25 -9 25 -9 0 -18 -4 -21 -9z"/>
<path d="M4515 663 c-95 -4 -113 -9 -97 -25 20 -20 14 -75 -12 -104 -13 -14
-30 -34 -39 -44 -8 -10 -21 -20 -28 -23 -11 -3 -11 -7 -3 -17 15 -16 89 25
103 57 6 13 15 23 21 23 5 0 15 21 21 46 13 52 24 59 74 50 41 -8 47 -32 15
-61 -36 -33 -19 -105 31 -131 38 -19 107 -18 149 4 28 14 35 23 35 47 0 37
-25 45 -54 16 -25 -25 -92 -29 -110 -7 -14 17 -7 97 12 134 9 19 8 25 -3 32
-8 6 -19 9 -25 8 -5 -1 -46 -3 -90 -5z"/>
<path d="M8524 655 c-4 -9 -20 -23 -36 -31 -24 -12 -27 -18 -17 -30 6 -8 18
-14 25 -14 17 0 18 -12 2 -28 -10 -10 -10 -17 0 -33 12 -19 9 -25 -34 -64 -31
-29 -45 -49 -41 -59 8 -20 33 -21 41 -1 7 20 42 19 50 -1 3 -9 6 -34 6 -55 0
-38 2 -40 27 -37 23 3 29 10 41 49 11 42 16 48 47 53 47 9 50 48 4 71 -22 12
-29 21 -24 33 4 9 10 26 13 37 3 11 13 31 24 44 36 47 20 65 -65 75 -47 5 -59
3 -63 -9z"/>
<path d="M9279 648 c-16 -30 -28 -38 -61 -38 -28 0 -37 -13 -18 -25 17 -11 0
-25 -29 -25 -16 0 -39 -8 -52 -19 -21 -17 -26 -17 -46 -4 -43 28 -59 -7 -18
-39 32 -25 32 -49 -1 -77 -23 -20 -25 -27 -19 -64 10 -57 10 -57 61 -57 39 0
47 4 62 30 9 16 23 30 29 30 7 0 20 11 29 25 9 14 25 25 35 25 16 0 19 -8 19
-42 0 -24 4 -49 9 -56 10 -17 46 -12 45 6 -1 6 -2 30 -2 51 -2 31 -7 41 -23
46 l-21 7 21 15 c18 12 20 21 15 56 -4 23 -10 46 -15 52 -5 5 -9 14 -9 20 0
13 65 46 74 38 10 -11 6 -48 -6 -62 -11 -10 -9 -16 9 -28 21 -14 21 -16 7 -39
-12 -17 -14 -34 -8 -66 4 -24 8 -56 8 -73 1 -28 4 -30 43 -33 51 -4 106 21
101 46 -2 11 -14 18 -33 19 -17 0 -36 2 -42 2 -9 1 -13 17 -13 47 0 25 -4 53
-10 63 -7 15 -4 20 15 29 30 14 31 23 5 47 -11 10 -20 26 -20 37 0 10 -7 18
-15 18 -8 0 -24 11 -37 24 -13 14 -35 28 -50 31 -21 5 -29 2 -39 -17z"/>
<path d="M8828 632 c-14 -24 -15 -31 -2 -60 10 -24 11 -39 4 -52 -6 -10 -10
-30 -10 -44 0 -27 -25 -46 -60 -46 -12 0 -18 -4 -15 -10 3 -5 17 -10 29 -10
31 0 44 -17 48 -65 2 -32 7 -40 23 -40 17 0 20 8 23 46 2 31 10 53 23 64 24
23 24 33 -2 62 -21 21 -21 25 -9 83 12 55 11 62 -5 80 -24 26 -28 25 -47 -8z"/>
<path d="M12910 648 c0 -21 21 -28 87 -28 l56 0 -6 -41 c-3 -26 -13 -46 -26
-56 -12 -8 -21 -20 -21 -27 0 -15 -37 -50 -62 -59 -29 -10 -21 -27 12 -27 19
0 33 6 37 16 3 8 16 20 30 25 13 5 28 21 34 36 6 16 19 37 29 48 10 11 20 34
22 50 2 22 9 31 26 33 20 3 22 -1 23 -40 1 -24 1 -59 0 -78 -1 -20 2 -47 8
-62 9 -24 15 -26 98 -33 125 -9 160 8 137 69 -8 22 -27 20 -48 -3 -23 -26 -69
-35 -96 -21 -17 9 -21 19 -19 48 2 20 -2 54 -10 75 -10 30 -10 41 0 53 6 8 9
17 6 20 -3 4 -76 9 -162 12 -135 4 -155 3 -155 -10z"/>
<path d="M9642 598 c-8 -8 -12 -57 -12 -154 0 -147 7 -172 38 -141 12 13 16
44 18 149 3 146 -8 182 -44 146z"/>
<path d="M18662 418 c-8 -8 -12 -48 -12 -114 0 -79 -4 -109 -17 -133 l-18 -31
-236 6 c-234 7 -289 4 -289 -17 0 -8 86 -10 289 -8 364 5 337 -9 333 178 -3
117 -5 131 -21 131 -9 0 -22 -5 -29 -12z"/>
<path d="M7297 207 c-8 -5 -5 -13 11 -27 18 -15 28 -17 49 -9 16 6 99 8 206 5
98 -2 185 -2 193 1 17 6 18 32 2 35 -42 6 -452 2 -461 -5z"/>
<path d="M7809 209 c-6 -4 -9 -13 -7 -20 7 -21 871 -25 888 -4 10 12 8 16 -14
25 -30 11 -849 11 -867 -1z"/>
<path d="M3130 199 c-13 -8 -11 -13 9 -29 22 -19 39 -20 428 -20 222 0 412 4
421 9 10 4 53 4 100 -2 54 -6 90 -7 104 0 l22 10 -25 16 c-21 14 -37 15 -107
7 -50 -5 -92 -6 -107 0 -13 5 -88 7 -167 4 -183 -6 -147 -6 -414 -1 -127 2
-235 6 -240 10 -6 3 -16 1 -24 -4z"/>
<path d="M6197 204 c-2 -3 -80 -5 -173 -6 -99 0 -174 -5 -182 -11 -9 -7 -24
-7 -45 -1 -18 6 -70 9 -117 7 -47 -1 -98 -3 -115 -3 -16 0 -154 0 -305 0 -151
-1 -288 0 -305 0 -58 3 -92 3 -353 -3 -144 -4 -267 -9 -273 -12 -5 -4 -7 -10
-4 -16 7 -10 2373 -10 2493 0 91 8 99 25 12 29 -35 2 -69 7 -75 12 -6 5 -80 6
-165 3 -172 -6 -189 -6 -307 1 -45 2 -84 2 -86 0z"/>
<path d="M8808 182 c-6 -7 -8 -16 -4 -20 16 -16 3596 -25 3612 -9 4 4 4 10 0
15 -11 10 -544 23 -966 22 -1012 -3 -1507 -2 -2043 1 -469 3 -591 1 -599 -9z"/>
<path d="M14868 173 c-31 -8 -20 -21 30 -37 42 -14 98 -16 433 -12 1028 13
1235 18 1243 26 24 24 -61 30 -445 30 -300 0 -406 -3 -422 -12 -16 -9 -122
-14 -394 -16 -328 -3 -375 -2 -395 12 -12 9 -25 15 -28 15 -3 -1 -13 -3 -22
-6z"/>
<path d="M16703 172 c-68 -3 -88 -12 -63 -27 22 -14 972 -7 1010 7 62 23 -20
28 -440 26 -239 -2 -468 -4 -507 -6z"/>
<path d="M13401 148 c-37 -8 -42 -12 -28 -20 17 -9 835 -4 844 6 3 2 -4 9 -16
15 -14 8 -34 8 -67 1 -32 -7 -140 -7 -353 0 -343 11 -320 11 -380 -2z"/>
</g>
</svg>
